<?xml version="1.0" standalone="no"?>
<!DOCTYPE svg PUBLIC "-//W3C//DTD SVG 20010904//EN"
 "http://www.w3.org/TR/2001/REC-SVG-20010904/DTD/svg10.dtd">
<svg version="1.0" xmlns="http://www.w3.org/2000/svg"
 width="399.000000pt" height="399.000000pt" viewBox="0 0 399.000000 399.000000"
 preserveAspectRatio="xMidYMid meet">
<metadata>
Created by potrace 1.14, written by Peter Selinger 2001-2017
</metadata>
<g transform="translate(0.000000,399.000000) scale(0.100000,-0.100000)"
fill="#000000" stroke="none">
<path d="M0 1995 l0 -1995 1995 0 1995 0 0 1995 0 1995 -1995 0 -1995 0 0
-1995z m1923 1741 c6 -15 -25 -18 -34 -3 -4 5 -13 6 -20 1 -21 -12 -69 -15
-69 -3 0 5 -5 7 -11 3 -8 -5 -8 -9 1 -14 9 -6 7 -11 -7 -19 -23 -12 -34 -6
-26 15 5 13 -7 18 -34 15 -7 -1 -13 3 -13 9 0 5 17 11 38 11 64 3 103 7 109
12 8 9 61 -13 66 -27z m164 1 c-7 -21 -32 -13 -35 11 -3 21 -1 22 18 12 12 -6
19 -17 17 -23z m67 25 c3 -5 31 -7 63 -6 32 1 64 -2 70 -8 7 -6 22 -8 33 -5
11 3 20 1 20 -4 0 -6 6 -9 13 -8 33 6 117 -26 117 -43 0 -9 -3 -8 -10 2 -5 8
-10 10 -10 4 0 -24 -33 -25 -59 -1 -24 22 -28 23 -51 10 -23 -14 -24 -14 -2
-10 28 6 29 -13 1 -20 -16 -4 -17 -8 -7 -14 8 -5 -6 -8 -34 -7 -27 1 -48 6
-48 10 0 4 8 8 18 8 16 1 16 1 -1 14 -12 9 -33 12 -60 9 -34 -4 -40 -3 -30 7
9 10 9 16 -2 26 -7 8 -18 14 -24 14 -6 0 -11 5 -11 11 0 6 -7 9 -15 5 -8 -3
-15 -1 -15 4 0 12 37 13 44 2z m-430 -54 c-3 -4 0 -8 6 -8 6 0 18 -7 26 -15
14 -13 12 -15 -13 -16 -15 -1 -32 -1 -37 0 -4 1 -14 -3 -20 -9 -7 -5 -26 -12
-42 -14 -73 -11 -92 -29 -58 -57 14 -12 14 -14 -2 -26 -26 -19 -10 -27 29 -14
19 6 42 8 52 5 13 -5 16 -4 11 4 -5 8 -2 10 8 6 18 -7 22 -24 6 -24 -5 0 -10
-4 -10 -9 0 -4 12 -6 28 -4 l27 4 -26 -24 c-25 -23 -26 -24 -8 -36 11 -6 18
-8 17 -4 -2 5 1 9 7 10 5 1 13 11 17 23 6 16 12 19 24 12 21 -12 64 7 64 29 0
8 -5 20 -12 27 -9 9 -9 12 1 12 7 0 9 5 6 10 -3 6 -1 10 4 10 6 0 11 -4 11 -9
0 -5 16 -9 35 -9 19 0 32 4 29 9 -3 5 2 16 10 25 9 8 16 12 16 7 0 -4 5 -1 10
7 7 11 10 11 10 2 0 -7 14 1 30 18 17 17 30 35 30 40 0 5 29 6 65 3 57 -4 66
-2 72 14 6 16 8 15 13 -7 4 -15 14 -26 25 -26 38 -3 39 -4 29 -14 -7 -7 -27
-7 -59 -1 -27 5 -58 5 -69 1 -17 -7 -18 -9 -3 -9 9 -1 17 -8 17 -16 0 -18 -37
-20 -43 -2 -3 9 -7 9 -20 -1 -9 -8 -21 -11 -26 -8 -5 4 -12 2 -15 -3 -3 -5 1
-11 9 -15 18 -7 20 -57 3 -75 -11 -11 -9 -11 10 -2 14 8 28 9 35 3 7 -5 29 -9
49 -11 28 -1 40 4 53 21 15 22 17 22 30 4 8 -10 12 -31 10 -47 -2 -21 1 -29
11 -29 11 0 13 6 9 20 -3 11 -2 20 3 20 5 0 17 -9 27 -20 19 -21 50 -26 60
-10 10 16 37 12 60 -10 12 -12 35 -23 50 -26 16 -3 32 -7 37 -10 4 -3 8 0 8 7
0 8 4 8 15 -1 13 -10 13 -15 3 -21 -14 -9 -17 -7 60 -34 39 -13 45 -13 58 0 9
8 12 19 9 25 -9 15 -25 12 -25 -5 0 -8 -3 -15 -8 -15 -12 0 -52 30 -52 39 0
15 71 43 88 35 24 -11 52 -13 52 -3 0 10 -65 23 -78 15 -5 -3 -15 1 -22 9 -16
19 -34 19 -27 1 4 -10 1 -13 -8 -10 -11 5 -12 10 -2 27 18 31 40 47 52 36 14
-14 22 -11 45 13 11 12 27 23 36 24 22 3 65 -17 58 -27 -3 -5 0 -9 6 -9 6 0
14 10 19 23 6 16 4 24 -8 28 -13 5 -54 5 -68 0 -10 -3 -18 0 -18 8 0 5 -3 12
-7 16 -8 9 -50 -4 -44 -14 3 -4 0 -13 -5 -21 -8 -13 -11 -12 -23 3 -8 10 -18
17 -22 16 -22 -4 -33 2 -28 16 5 11 1 14 -12 9 -13 -4 -15 -3 -6 3 7 5 10 17
6 26 -3 10 -1 17 5 17 6 0 11 -6 11 -12 0 -8 5 -5 11 4 8 15 13 16 29 5 11 -6
20 -17 20 -24 0 -16 5 -16 32 -2 15 8 31 7 67 -6 68 -24 91 -37 85 -47 -3 -4
3 -8 13 -8 10 0 29 -9 43 -20 14 -11 30 -20 36 -20 16 0 96 -40 112 -56 7 -8
20 -14 28 -14 8 0 34 -18 56 -40 23 -22 45 -40 49 -40 10 0 94 -76 128 -114
14 -17 54 -58 89 -92 34 -34 62 -67 62 -73 0 -6 16 -28 35 -49 19 -21 39 -49
45 -63 6 -13 18 -36 28 -50 9 -14 27 -41 39 -60 13 -19 23 -30 23 -26 0 5 7 1
16 -7 8 -9 22 -16 30 -16 8 0 14 -9 14 -21 0 -12 -4 -17 -11 -14 -6 4 -5 -2 2
-13 7 -12 18 -18 23 -15 6 4 6 8 -2 11 -9 3 -8 7 1 17 17 19 35 1 48 -48 6
-22 23 -68 38 -101 48 -107 50 -111 38 -131 -14 -26 -16 -139 -5 -280 5 -66
10 -160 10 -210 1 -98 -30 -404 -42 -420 -4 -5 -15 -37 -24 -70 -9 -33 -24
-83 -32 -112 -8 -29 -19 -55 -24 -58 -6 -4 -10 -14 -10 -23 0 -19 -67 -154
-115 -232 -19 -30 -34 -62 -35 -70 0 -8 -13 -28 -29 -43 -17 -15 -31 -40 -33
-55 -2 -16 -12 -31 -27 -39 -14 -6 -31 -24 -39 -38 -15 -29 -161 -175 -175
-175 -9 0 -67 -39 -82 -56 -5 -6 -26 -20 -45 -32 -20 -12 -47 -30 -59 -42 -13
-11 -28 -20 -34 -20 -11 0 -111 -70 -115 -81 -2 -4 -10 -5 -18 -2 -7 3 -29 -4
-47 -14 -18 -11 -46 -23 -62 -27 -17 -4 -36 -13 -43 -19 -8 -6 -19 -12 -26
-13 -6 -1 -36 -11 -66 -23 -50 -19 -150 -41 -250 -56 -19 -3 -45 -7 -57 -10
-16 -4 -23 -1 -23 10 0 9 -9 15 -22 14 -13 0 -17 -3 -10 -6 6 -2 12 -9 12 -15
0 -6 -8 -7 -17 -4 -9 4 -20 1 -24 -5 -5 -9 -46 -13 -128 -13 -109 -1 -122 1
-136 19 -12 16 -14 17 -9 2 6 -16 -1 -17 -97 -10 -118 7 -191 23 -197 42 -3
10 0 11 18 1 18 -9 24 -9 30 0 5 8 18 10 34 6 20 -5 26 -3 26 10 0 11 -6 15
-20 11 -11 -3 -38 -1 -60 4 -23 5 -46 6 -52 3 -6 -4 -27 -8 -47 -10 -20 -1
-30 0 -23 3 6 2 12 9 12 15 0 6 -8 4 -18 -5 -16 -14 -21 -14 -67 1 -28 9 -42
18 -33 20 9 2 26 -2 37 -7 33 -18 42 -14 30 16 -7 19 -6 28 2 33 16 10 -7 24
-26 16 -8 -3 -15 -1 -15 5 0 6 -5 7 -11 4 -5 -4 -18 0 -27 8 -10 9 -33 15 -57
14 -32 -2 -41 -6 -43 -23 -3 -20 -4 -20 -50 -4 -56 19 -143 66 -182 98 -15 12
-32 22 -38 22 -5 0 -12 7 -16 15 -3 8 -11 15 -18 15 -7 0 -33 19 -57 41 -25
23 -60 48 -78 55 -18 8 -33 18 -33 22 0 4 -36 44 -80 87 -44 44 -80 84 -80 88
0 5 -13 21 -28 35 -16 15 -31 35 -35 45 -3 9 -13 17 -22 17 -8 0 -15 6 -15 13
0 16 -29 74 -58 114 -32 45 -116 220 -137 283 -32 99 -42 112 -78 105 -30 -6
-31 -5 -13 10 11 8 23 15 27 15 10 0 1 86 -15 133 -12 39 -24 158 -31 317 -1
36 1 108 6 160 5 52 11 120 13 150 2 30 10 69 16 85 7 17 12 57 12 89 0 33 3
54 7 48 13 -22 71 148 71 210 0 57 17 115 35 122 8 3 15 11 15 18 0 8 13 19
30 25 30 11 34 16 44 65 4 18 11 25 20 22 9 -4 24 8 39 33 14 21 33 47 44 58
43 46 66 87 53 95 -16 10 -4 30 17 30 8 0 38 25 66 55 27 30 58 55 68 55 11 0
19 6 19 13 0 7 10 17 23 22 13 6 22 19 22 32 0 29 11 38 29 24 11 -9 21 -5 50
22 24 23 34 40 30 51 -3 9 -1 16 5 16 6 0 11 -4 11 -10 0 -22 52 4 103 53 10
10 25 16 32 13 7 -2 20 3 29 13 9 10 36 26 59 36 23 10 60 26 82 36 22 9 67
25 100 34 33 10 71 21 84 26 17 7 26 6 35 -6 9 -12 17 -14 36 -6 18 7 20 10 8
10 -20 1 -24 16 -6 27 6 4 16 0 23 -9 13 -18 45 -23 45 -8 0 5 -6 12 -12 15
-7 3 -3 3 8 1 14 -4 24 0 27 9 5 12 11 13 36 3 16 -6 28 -15 25 -19z m276 11
c0 -7 -18 -7 -48 0 -2 1 -1 5 2 10 7 11 46 2 46 -10z m130 1 c0 -5 -8 -10 -17
-10 -15 0 -16 2 -3 10 19 12 20 12 20 0z m-210 -19 c0 -5 14 -11 31 -15 17 -3
28 -10 25 -15 -3 -5 -15 -7 -26 -4 -11 3 -27 -1 -36 -8 -13 -10 -17 -10 -25 2
-16 25 -10 49 11 49 11 0 20 -4 20 -9z m-178 -104 c10 -3 21 -1 24 4 8 14 24
11 24 -5 0 -16 -47 -30 -63 -19 -7 4 -31 8 -54 8 -47 0 -52 7 -25 34 27 29 46
30 61 5 8 -12 23 -25 33 -27z m443 33 c3 -5 -1 -10 -10 -10 -9 0 -13 5 -10 10
3 6 8 10 10 10 2 0 7 -4 10 -10z m289 -60 c18 -7 15 -9 -14 -11 -19 -1 -27 -3
-17 -6 18 -5 22 -29 8 -51 -7 -11 -15 -11 -45 2 -31 13 -36 19 -31 36 4 12 2
27 -4 34 -9 11 -6 15 14 20 26 7 35 25 13 27 -7 0 -4 4 7 8 16 6 23 2 34 -21
8 -17 24 -34 35 -38z m-219 40 c0 -7 -6 -15 -12 -17 -8 -3 -13 4 -13 17 0 13
5 20 13 18 6 -3 12 -11 12 -18z m125 -1 c0 -5 -7 -9 -15 -9 -9 0 -14 -8 -12
-22 1 -16 -4 -23 -18 -25 -11 -1 -15 0 -8 3 8 4 9 13 3 29 -5 12 -7 25 -4 28
8 8 54 5 54 -4z m-763 -5 c-3 -3 -12 -4 -19 -1 -8 3 -5 6 6 6 11 1 17 -2 13
-5z m463 -4 c8 -5 11 -12 7 -16 -4 -4 1 -16 10 -27 17 -20 17 -20 0 -14 -10 4
-25 7 -34 7 -10 0 -13 6 -9 16 4 9 1 23 -5 30 -14 17 7 19 31 4z m270 -81 c0
-5 -9 -9 -20 -9 -11 0 -20 6 -20 14 0 9 7 12 20 9 11 -3 20 -9 20 -14z m70
-38 c0 -18 -18 -21 -30 -6 -10 13 -9 15 9 15 11 0 21 -4 21 -9z m-1820 -2495
c0 -3 -4 -8 -10 -11 -5 -3 -10 -1 -10 4 0 6 5 11 10 11 6 0 10 -2 10 -4z"/>
<path d="M2250 3720 c0 -5 5 -10 11 -10 5 0 7 5 4 10 -3 6 -8 10 -11 10 -2 0
-4 -4 -4 -10z"/>
<path d="M1405 3610 c-3 -5 1 -10 9 -10 9 0 16 5 16 10 0 6 -4 10 -9 10 -6 0
-13 -4 -16 -10z"/>
<path d="M1920 3598 c0 -4 14 -8 30 -8 17 0 30 4 30 9 0 5 -13 9 -30 9 -16 -1
-30 -5 -30 -10z"/>
<path d="M1886 3565 c-19 -7 -37 -10 -40 -8 -3 3 -2 -4 1 -16 3 -12 1 -21 -6
-21 -15 0 -14 -33 2 -49 10 -11 8 -11 -11 -1 -25 12 -43 6 -26 -9 15 -14 58
-25 50 -13 -3 6 5 23 19 39 24 26 26 26 20 6 -4 -13 -2 -23 3 -23 13 0 33 25
26 33 -9 9 35 29 48 21 8 -5 9 -2 5 10 -4 10 -7 21 -7 26 0 14 -48 17 -84 5z"/>
<path d="M1635 3530 c-3 -5 1 -13 10 -16 22 -9 29 1 11 15 -10 8 -16 9 -21 1z"/>
<path d="M1527 3524 c-14 -14 -7 -25 10 -15 11 5 26 5 41 0 22 -9 42 -5 31 5
-9 9 -75 17 -82 10z"/>
<path d="M1470 3510 c0 -5 5 -10 11 -10 5 0 7 5 4 10 -3 6 -8 10 -11 10 -2 0
-4 -4 -4 -10z"/>
<path d="M1445 3500 c-3 -5 -1 -10 4 -10 6 0 11 5 11 10 0 6 -2 10 -4 10 -3 0
-8 -4 -11 -10z"/>
<path d="M1415 3490 c-3 -5 -1 -10 4 -10 6 0 11 5 11 10 0 6 -2 10 -4 10 -3 0
-8 -4 -11 -10z"/>
<path d="M2110 3481 c0 -18 18 -21 30 -6 10 13 9 15 -9 15 -11 0 -21 -4 -21
-9z"/>
<path d="M1479 3467 c6 -8 7 -18 3 -22 -4 -5 -1 -5 6 -1 18 10 15 36 -4 36
-13 0 -14 -3 -5 -13z"/>
<path d="M1936 3465 c-3 -9 0 -15 8 -15 8 0 16 7 20 15 3 9 0 15 -8 15 -8 0
-16 -7 -20 -15z"/>
<path d="M2342 3448 c5 -15 28 -23 28 -10 0 5 -7 13 -16 16 -10 4 -14 1 -12
-6z"/>
<path d="M1980 3440 c0 -5 5 -10 11 -10 5 0 7 5 4 10 -3 6 -8 10 -11 10 -2 0
-4 -4 -4 -10z"/>
<path d="M2247 3411 c-6 -23 16 -51 39 -50 17 0 16 2 -3 11 -25 12 -30 34 -11
40 8 3 6 6 -4 10 -10 4 -18 0 -21 -11z"/>
<path d="M2815 3420 c3 -5 11 -10 16 -10 6 0 7 5 4 10 -3 6 -11 10 -16 10 -6
0 -7 -4 -4 -10z"/>
<path d="M1901 3412 c-9 -3 -2 -10 19 -18 17 -8 36 -11 42 -8 5 3 18 -2 28
-11 12 -11 26 -15 37 -11 17 7 17 8 1 17 -10 6 -18 18 -19 27 0 10 -3 12 -6 5
-5 -14 -79 -18 -85 -4 -1 4 -9 6 -17 3z"/>
<path d="M2106 3406 c3 -8 13 -12 25 -9 16 5 18 8 7 14 -20 13 -38 11 -32 -5z"/>
<path d="M2660 3414 c0 0 8 -10 18 -22 9 -11 25 -30 35 -42 10 -12 25 -19 33
-16 8 3 14 2 14 -3 0 -9 51 -34 57 -27 7 7 -35 46 -50 46 -18 0 -54 43 -49 58
2 8 -6 12 -27 10 -17 -1 -31 -3 -31 -4z"/>
<path d="M2770 3410 c-9 -6 -10 -10 -3 -10 6 0 15 5 18 10 8 12 4 12 -15 0z"/>
<path d="M1210 3400 c0 -5 4 -10 9 -10 6 0 13 5 16 10 3 6 -1 10 -9 10 -9 0
-16 -4 -16 -10z"/>
<path d="M1685 3400 c-3 -5 -1 -10 4 -10 6 0 11 5 11 10 0 6 -2 10 -4 10 -3 0
-8 -4 -11 -10z"/>
<path d="M1784 3385 c-9 -22 1 -29 15 -11 8 10 9 16 1 21 -5 3 -13 -1 -16 -10z"/>
<path d="M1540 3382 c0 -8 43 -32 55 -32 3 0 5 6 5 14 0 7 -10 16 -22 20 -31
8 -38 7 -38 -2z"/>
<path d="M1650 3369 c0 -6 7 -9 15 -5 9 3 15 0 15 -9 0 -8 -9 -15 -20 -15 -15
0 -20 -7 -20 -29 0 -36 26 -62 36 -36 4 10 1 21 -7 26 -11 8 -10 13 8 26 18
12 20 19 12 34 -10 20 -39 26 -39 8z"/>
<path d="M1250 3354 c0 -8 5 -12 10 -9 6 4 8 11 5 16 -9 14 -15 11 -15 -7z"/>
<path d="M1955 3360 c3 -5 11 -10 16 -10 6 0 7 5 4 10 -3 6 -11 10 -16 10 -6
0 -7 -4 -4 -10z"/>
<path d="M2604 3346 c-3 -9 -13 -16 -22 -16 -12 0 -13 -3 -4 -12 9 -9 16 -7
32 10 12 12 16 23 10 27 -6 3 -13 -1 -16 -9z"/>
<path d="M1300 3340 c0 -5 5 -10 11 -10 5 0 7 5 4 10 -3 6 -8 10 -11 10 -2 0
-4 -4 -4 -10z"/>
<path d="M1431 3334 c0 -11 3 -14 6 -6 3 7 2 16 -1 19 -3 4 -6 -2 -5 -13z"/>
<path d="M2362 3339 c2 -6 8 -10 13 -10 5 0 11 4 13 10 2 6 -4 11 -13 11 -9 0
-15 -5 -13 -11z"/>
<path d="M2420 3331 c0 -11 31 -24 39 -16 3 3 -1 10 -9 15 -19 12 -30 12 -30
1z"/>
<path d="M2260 3320 c0 -5 5 -10 11 -10 5 0 7 5 4 10 -3 6 -8 10 -11 10 -2 0
-4 -4 -4 -10z"/>
<path d="M1215 3300 c-3 -5 1 -10 10 -10 9 0 13 5 10 10 -3 6 -8 10 -10 10 -2
0 -7 -4 -10 -10z"/>
<path d="M1855 3290 c-3 -5 -2 -10 4 -10 5 0 13 5 16 10 3 6 2 10 -4 10 -5 0
-13 -4 -16 -10z"/>
<path d="M2501 3291 c-16 -10 -6 -31 15 -31 16 0 18 9 6 27 -4 7 -13 9 -21 4z"/>
<path d="M985 3274 c-17 -12 -17 -16 -5 -28 11 -10 21 -11 35 -5 18 9 18 9 -2
5 -24 -4 -33 19 -10 27 6 2 10 7 7 10 -3 3 -14 -1 -25 -9z"/>
<path d="M1405 3279 c-5 -8 -1 -9 15 -4 15 5 20 4 16 -4 -4 -6 -2 -11 4 -11
17 0 6 24 -12 28 -9 2 -19 -2 -23 -9z"/>
<path d="M2180 3280 c0 -5 5 -10 10 -10 6 0 10 5 10 10 0 6 -4 10 -10 10 -5 0
-10 -4 -10 -10z"/>
<path d="M1529 3258 c-6 -23 -7 -48 -1 -48 4 0 9 11 10 25 1 14 0 25 -3 25 -3
0 -5 -1 -6 -2z"/>
<path d="M1980 3230 c-18 -16 -36 -30 -40 -30 -4 0 -10 -7 -14 -15 -3 -9 0
-15 9 -15 8 0 15 5 15 11 0 6 7 8 16 5 8 -3 13 -2 10 3 -7 11 30 44 42 37 8
-5 22 14 22 30 0 14 -33 0 -60 -26z"/>
<path d="M2340 3250 c0 -5 5 -10 11 -10 5 0 7 5 4 10 -3 6 -8 10 -11 10 -2 0
-4 -4 -4 -10z"/>
<path d="M1043 3227 c0 -12 -4 -31 -8 -42 -8 -18 -7 -18 6 -5 22 21 30 58 14
64 -8 3 -13 -4 -12 -17z"/>
<path d="M1136 3241 c-4 -7 -5 -15 -2 -18 9 -9 19 4 14 18 -4 11 -6 11 -12 0z"/>
<path d="M1290 3239 c0 -5 5 -7 10 -4 6 3 10 8 10 11 0 2 -4 4 -10 4 -5 0 -10
-5 -10 -11z"/>
<path d="M2040 3215 c-8 -9 -8 -15 -2 -15 12 0 26 19 19 26 -2 2 -10 -2 -17
-11z"/>
<path d="M2125 3220 c3 -5 8 -10 11 -10 2 0 4 5 4 10 0 6 -5 10 -11 10 -5 0
-7 -4 -4 -10z"/>
<path d="M2200 3220 c0 -5 5 -10 11 -10 5 0 7 5 4 10 -3 6 -8 10 -11 10 -2 0
-4 -4 -4 -10z"/>
<path d="M1098 3187 c-18 -15 -28 -32 -28 -50 0 -15 -4 -27 -10 -27 -5 0 -7 7
-4 15 4 9 0 15 -10 15 -20 0 -21 -14 -1 -30 17 -14 6 -28 -35 -47 -21 -9 -22
-11 -5 -11 11 0 28 -3 38 -7 12 -5 17 -3 17 9 0 25 19 19 31 -10 12 -33 11
-33 -36 -39 -42 -6 -55 -12 -55 -25 0 -6 11 -5 26 0 25 10 26 9 20 -15 -6 -23
-4 -24 34 -21 33 3 40 0 40 -15 0 -11 9 -19 23 -21 14 -2 23 -11 25 -25 3 -19
8 -22 36 -18 26 5 36 0 54 -20 13 -14 26 -24 30 -21 4 2 19 -4 32 -14 l25 -19
-22 -16 c-13 -9 -23 -23 -23 -32 0 -15 2 -14 13 2 8 10 19 15 25 11 6 -3 13
-2 17 3 3 6 18 -2 33 -17 15 -16 35 -26 44 -24 13 2 16 -1 12 -12 -4 -11 1
-14 23 -12 15 1 34 -2 41 -8 10 -7 13 -6 11 5 -1 7 1 22 6 32 10 24 -1 33 -20
17 -18 -15 -20 1 -3 18 9 9 4 12 -25 12 -20 0 -37 -4 -37 -10 0 -5 7 -7 15 -4
8 4 15 2 15 -4 0 -5 -9 -12 -19 -15 -15 -3 -20 2 -25 24 -3 16 -3 36 0 44 4 8
0 22 -7 31 -10 13 -10 17 2 25 19 12 36 11 44 -1 3 -5 1 -10 -4 -10 -17 0 -13
-18 10 -41 19 -19 22 -19 38 -5 23 21 26 20 52 -6 16 -17 23 -19 26 -10 3 7
16 17 29 22 46 18 26 30 -48 31 -15 0 -30 4 -33 9 -3 5 -13 6 -23 3 -15 -6
-15 -4 2 15 10 12 23 19 27 16 16 -10 9 6 -11 26 -23 23 -42 26 -34 7 3 -8 -2
-20 -10 -27 -13 -10 -17 -9 -22 4 -6 17 -34 23 -34 7 0 -5 -9 -7 -19 -4 -14 3
-22 17 -26 45 -5 25 -11 36 -17 30 -5 -5 -4 -19 3 -36 10 -21 10 -29 -1 -39
-8 -8 -11 -8 -7 -1 4 7 -3 14 -18 18 -27 7 -50 49 -41 73 3 7 1 13 -4 13 -6 0
-10 7 -10 15 0 9 6 12 15 8 10 -3 15 0 13 8 -2 9 4 13 15 11 9 -2 17 0 17 3 0
10 -62 90 -70 90 -4 0 -19 12 -33 26 -18 20 -31 26 -51 22 -14 -3 -26 -10 -26
-15 0 -5 -7 -16 -15 -24 -12 -13 -15 -13 -15 -1 0 7 3 17 8 21 10 11 9 30 -3
38 -14 11 -17 10 -47 -15z m136 -32 c11 -8 16 -18 12 -22 -3 -4 -16 3 -28 15
-25 25 -13 29 16 7z m-64 -65 c0 -5 -5 -10 -11 -10 -5 0 -7 5 -4 10 3 6 8 10
11 10 2 0 4 -4 4 -10z m80 -20 c0 -5 -4 -10 -10 -10 -5 0 -10 5 -10 10 0 6 5
10 10 10 6 0 10 -4 10 -10z m-43 -6 c-3 -3 -12 -4 -19 -1 -8 3 -5 6 6 6 11 1
17 -2 13 -5z m47 -89 c-10 -7 -22 -11 -27 -8 -12 7 0 19 23 20 21 2 21 1 4
-12z m102 -90 c5 -11 11 -12 25 -4 15 8 19 6 19 -7 0 -16 -27 -43 -44 -44 -4
0 -6 7 -2 15 3 9 0 15 -9 15 -8 0 -15 9 -15 20 0 23 18 27 26 5z m44 -65 c0
-5 -4 -10 -10 -10 -5 0 -10 5 -10 10 0 6 5 10 10 10 6 0 10 -4 10 -10z m20
-60 c0 -5 -5 -10 -11 -10 -5 0 -7 5 -4 10 3 6 8 10 11 10 2 0 4 -4 4 -10z"/>
<path d="M1800 3191 c0 -5 14 -11 30 -13 20 -3 30 0 30 9 0 8 -12 13 -30 13
-16 0 -30 -4 -30 -9z"/>
<path d="M990 3173 c0 -9 -7 -24 -15 -33 -14 -16 -14 -17 10 -13 14 3 25 8 25
12 0 3 3 16 6 29 5 16 2 22 -10 22 -9 0 -16 -8 -16 -17z"/>
<path d="M2012 3178 c5 -15 28 -18 29 -3 0 6 -7 12 -17 13 -10 3 -15 -1 -12
-10z"/>
<path d="M2304 3173 c-15 -15 -13 -17 18 -27 18 -6 33 -18 33 -26 0 -21 29
-19 33 3 2 9 -2 17 -8 17 -6 0 -22 11 -35 24 -23 23 -26 24 -41 9z"/>
<path d="M1711 3166 c-9 -10 -9 -16 -1 -21 17 -10 37 12 24 25 -8 8 -15 6 -23
-4z"/>
<path d="M2905 3170 c3 -5 11 -10 16 -10 6 0 7 5 4 10 -3 6 -11 10 -16 10 -6
0 -7 -4 -4 -10z"/>
<path d="M3065 3170 c3 -5 8 -10 11 -10 2 0 4 5 4 10 0 6 -5 10 -11 10 -5 0
-7 -4 -4 -10z"/>
<path d="M1275 3160 c-3 -6 1 -7 9 -4 18 7 21 14 7 14 -6 0 -13 -4 -16 -10z"/>
<path d="M1560 3155 c0 -13 4 -14 20 -5 11 6 20 13 20 15 0 3 -9 5 -20 5 -11
0 -20 -7 -20 -15z"/>
<path d="M2195 3160 c3 -5 12 -7 20 -3 21 7 19 13 -6 13 -11 0 -18 -4 -14 -10z"/>
<path d="M2257 3134 c9 -15 19 -21 21 -15 6 19 -6 41 -23 41 -14 0 -13 -3 2
-26z"/>
<path d="M2604 3103 c2 -21 9 -39 16 -41 9 -3 11 3 6 21 -3 14 -1 27 4 29 6 2
1 9 -9 15 -19 12 -20 10 -17 -24z"/>
<path d="M1951 3116 c-12 -14 -5 -46 10 -46 5 0 9 9 9 19 0 11 5 21 12 23 8 3
6 7 -4 11 -9 3 -21 0 -27 -7z"/>
<path d="M973 3105 c-3 -9 -3 -19 1 -22 8 -9 37 18 30 28 -8 14 -24 11 -31 -6z"/>
<path d="M1422 3112 c-6 -2 -12 -13 -11 -25 0 -12 3 -16 6 -9 4 10 8 9 17 -4
12 -16 13 -16 18 2 6 22 -11 43 -30 36z"/>
<path d="M1705 3110 c3 -5 8 -10 11 -10 2 0 4 5 4 10 0 6 -5 10 -11 10 -5 0
-7 -4 -4 -10z"/>
<path d="M1763 3113 c-15 -5 -17 -23 -4 -23 5 0 11 7 15 15 3 8 4 15 3 14 -1
0 -8 -3 -14 -6z"/>
<path d="M2534 3112 c4 -7 1 -12 -8 -12 -20 0 -21 -16 -2 -23 17 -7 29 30 14
40 -7 3 -8 1 -4 -5z"/>
<path d="M1901 3093 c12 -15 12 -16 -6 -9 -16 6 -18 5 -7 -5 9 -10 15 -10 23
-2 12 12 4 33 -13 33 -6 0 -5 -7 3 -17z"/>
<path d="M2100 3084 c0 -9 12 -28 26 -41 21 -19 29 -21 40 -12 12 10 12 14 2
21 -10 8 -10 11 0 15 6 2 12 9 12 15 0 6 -6 5 -15 -2 -13 -10 -19 -10 -33 4
-23 20 -32 20 -32 0z"/>
<path d="M2813 3080 c6 -11 15 -20 19 -20 12 0 -3 28 -18 34 -11 4 -12 2 -1
-14z"/>
<path d="M800 3080 c0 -5 6 -10 14 -10 8 0 18 5 21 10 3 6 -3 10 -14 10 -12 0
-21 -4 -21 -10z"/>
<path d="M1630 3080 c0 -5 5 -10 10 -10 6 0 10 5 10 10 0 6 -4 10 -10 10 -5 0
-10 -4 -10 -10z"/>
<path d="M1707 3083 c-4 -3 -7 -11 -7 -17 0 -6 5 -5 12 2 6 6 9 14 7 17 -3 3
-9 2 -12 -2z"/>
<path d="M1810 3081 c0 -5 7 -11 15 -15 9 -3 15 0 15 9 0 8 -7 15 -15 15 -8 0
-15 -4 -15 -9z"/>
<path d="M2291 3074 c13 -16 29 -19 29 -5 0 5 -9 11 -21 14 -16 4 -18 3 -8 -9z"/>
<path d="M1996 3072 c-7 -12 7 -28 32 -34 14 -4 22 -2 22 6 0 7 -10 12 -22 12
-13 -1 -22 4 -20 12 2 14 -4 16 -12 4z"/>
<path d="M955 3049 c-4 -6 -5 -13 -2 -16 7 -7 27 6 27 18 0 12 -17 12 -25 -2z"/>
<path d="M1507 3054 c-4 -4 -7 -11 -7 -15 0 -10 24 -5 28 6 4 12 -12 18 -21 9z"/>
<path d="M2526 3053 c-11 -11 -6 -23 9 -23 8 0 15 4 15 9 0 13 -16 22 -24 14z"/>
<path d="M1370 3030 c0 -5 5 -10 10 -10 6 0 10 5 10 10 0 6 -4 10 -10 10 -5 0
-10 -4 -10 -10z"/>
<path d="M1829 3038 c-10 -34 -7 -49 8 -47 21 3 73 -21 73 -33 0 -4 7 -8 15
-8 8 0 15 -4 15 -10 0 -5 5 -10 11 -10 8 0 8 4 0 14 -9 11 -7 21 8 47 22 35
20 49 -7 49 -15 0 -15 -2 -2 -10 13 -8 13 -11 -2 -26 -24 -24 -92 -11 -85 17
4 14 0 19 -14 19 -10 0 -19 -1 -20 -2z"/>
<path d="M2680 3030 c0 -13 18 -22 24 -11 3 5 -1 11 -9 15 -8 3 -15 1 -15 -4z"/>
<path d="M1435 3020 c-3 -5 -1 -10 4 -10 6 0 11 5 11 10 0 6 -2 10 -4 10 -3 0
-8 -4 -11 -10z"/>
<path d="M1555 3020 c-3 -5 -1 -10 4 -10 6 0 11 5 11 10 0 6 -2 10 -4 10 -3 0
-8 -4 -11 -10z"/>
<path d="M2745 3010 c-3 -5 -1 -10 4 -10 6 0 11 5 11 10 0 6 -2 10 -4 10 -3 0
-8 -4 -11 -10z"/>
<path d="M957 2996 c-6 -14 0 -26 14 -26 3 0 9 9 12 20 6 23 -18 28 -26 6z"/>
<path d="M2205 3000 c-23 -6 -25 -8 -8 -9 12 0 26 -8 31 -18 8 -13 10 -11 10
10 0 15 -1 26 -2 26 0 -1 -14 -5 -31 -9z"/>
<path d="M1750 2991 c0 -5 8 -17 17 -27 18 -18 30 -6 19 21 -6 16 -36 21 -36
6z"/>
<path d="M2420 2980 c0 -5 10 -10 23 -10 18 0 19 2 7 10 -19 13 -30 13 -30 0z"/>
<path d="M1415 2970 c-3 -5 -2 -17 3 -27 9 -15 11 -14 20 4 15 27 -7 49 -23
23z"/>
<path d="M1495 2970 c3 -5 11 -10 16 -10 6 0 7 5 4 10 -3 6 -11 10 -16 10 -6
0 -7 -4 -4 -10z"/>
<path d="M2046 2967 c-11 -8 -15 -17 -10 -20 14 -8 37 8 33 22 -3 8 -10 8 -23
-2z"/>
<path d="M818 2963 c6 -2 18 -2 25 0 6 3 1 5 -13 5 -14 0 -19 -2 -12 -5z"/>
<path d="M2493 2957 c9 -8 17 -21 17 -29 0 -22 39 -68 56 -68 8 0 12 5 9 10
-4 7 2 9 19 4 30 -7 34 6 10 30 -11 12 -20 13 -34 6 -26 -14 -29 -13 -40 14
-5 14 -19 30 -32 36 -21 10 -21 10 -5 -3z"/>
<path d="M2112 2948 c6 -18 28 -21 28 -4 0 9 -7 16 -16 16 -9 0 -14 -5 -12
-12z"/>
<path d="M2950 2950 c0 -5 5 -10 10 -10 6 0 10 5 10 10 0 6 -4 10 -10 10 -5 0
-10 -4 -10 -10z"/>
<path d="M2676 2935 c4 -8 10 -15 15 -15 5 0 9 7 9 15 0 8 -7 15 -15 15 -9 0
-12 -6 -9 -15z"/>
<path d="M3209 2926 c29 -31 35 -33 22 -7 -6 10 -18 22 -28 25 -13 5 -11 1 6
-18z"/>
<path d="M2740 2931 c0 -5 5 -13 10 -16 6 -3 10 -2 10 4 0 5 -4 13 -10 16 -5
3 -10 2 -10 -4z"/>
<path d="M1590 2905 c0 -9 8 -19 18 -22 9 -4 20 -11 24 -17 5 -7 8 -7 8 -1 -1
11 -35 55 -44 55 -3 0 -6 -7 -6 -15z"/>
<path d="M1739 2903 c-13 -15 -12 -15 9 -4 23 12 28 21 13 21 -5 0 -15 -7 -22
-17z"/>
<path d="M2470 2900 c0 -5 5 -10 11 -10 5 0 7 5 4 10 -3 6 -8 10 -11 10 -2 0
-4 -4 -4 -10z"/>
<path d="M1065 2890 c3 -5 8 -10 11 -10 2 0 4 5 4 10 0 6 -5 10 -11 10 -5 0
-7 -4 -4 -10z"/>
<path d="M1102 2880 c-10 -17 -10 -20 3 -20 8 0 15 9 15 20 0 11 -1 20 -3 20
-1 0 -8 -9 -15 -20z"/>
<path d="M2250 2890 c0 -5 5 -10 10 -10 6 0 10 5 10 10 0 6 -4 10 -10 10 -5 0
-10 -4 -10 -10z"/>
<path d="M2377 2893 c-3 -5 1 -17 9 -28 14 -18 14 -18 14 2 0 23 -15 39 -23
26z"/>
<path d="M785 2880 c-3 -5 -1 -10 4 -10 6 0 11 5 11 10 0 6 -2 10 -4 10 -3 0
-8 -4 -11 -10z"/>
<path d="M2121 2874 c0 -11 3 -14 6 -6 3 7 2 16 -1 19 -3 4 -6 -2 -5 -13z"/>
<path d="M2450 2875 c7 -8 17 -15 22 -15 6 0 5 7 -2 15 -7 8 -17 15 -22 15 -6
0 -5 -7 2 -15z"/>
<path d="M1840 2857 c0 -14 4 -28 9 -32 5 -3 8 6 7 20 -4 35 -16 44 -16 12z"/>
<path d="M2805 2870 c3 -5 10 -10 16 -10 5 0 9 5 9 10 0 6 -7 10 -16 10 -8 0
-12 -4 -9 -10z"/>
<path d="M1810 2860 c0 -5 5 -10 10 -10 6 0 10 5 10 10 0 6 -4 10 -10 10 -5 0
-10 -4 -10 -10z"/>
<path d="M2666 2854 c-3 -9 -4 -20 0 -25 3 -5 -2 -9 -10 -9 -31 0 -15 -16 28
-28 30 -8 45 -18 49 -32 4 -15 0 -20 -13 -20 -13 0 -17 -5 -13 -20 4 -14 0
-20 -11 -20 -9 0 -16 7 -16 15 0 8 -4 15 -9 15 -4 0 -6 -11 -3 -25 4 -23 8
-25 40 -20 19 3 40 1 46 -4 7 -6 18 -4 30 5 11 8 14 14 8 14 -7 0 -12 7 -12
15 0 8 5 15 10 15 6 0 10 -3 10 -7 0 -5 11 -9 25 -9 31 -2 25 10 -15 26 -16 7
-30 18 -30 24 0 6 -13 26 -30 44 -16 18 -30 40 -30 48 0 19 -46 18 -54 -2z"/>
<path d="M2217 2853 c-10 -9 -9 -33 1 -33 4 0 8 9 9 20 2 21 0 24 -10 13z"/>
<path d="M2410 2844 c0 -8 5 -12 10 -9 6 4 8 11 5 16 -9 14 -15 11 -15 -7z"/>
<path d="M2510 2850 c0 -5 5 -10 11 -10 5 0 7 5 4 10 -3 6 -8 10 -11 10 -2 0
-4 -4 -4 -10z"/>
<path d="M2905 2850 c3 -5 11 -10 16 -10 6 0 7 5 4 10 -3 6 -11 10 -16 10 -6
0 -7 -4 -4 -10z"/>
<path d="M2611 2841 c-9 -6 -10 -11 -2 -15 13 -8 31 1 31 15 0 11 -11 11 -29
0z"/>
<path d="M825 2830 c-3 -5 -1 -10 4 -10 6 0 11 5 11 10 0 6 -2 10 -4 10 -3 0
-8 -4 -11 -10z"/>
<path d="M1123 2833 c-7 -2 -13 -9 -13 -14 0 -4 7 -6 16 -2 12 4 15 2 12 -8
-3 -9 -19 -14 -41 -14 -22 0 -37 -5 -37 -12 0 -18 16 -24 28 -10 13 16 84 16
90 -1 2 -7 -9 -15 -27 -18 -32 -7 -41 -19 -18 -27 6 -2 22 3 34 10 12 8 28 11
34 7 9 -5 10 -2 6 9 -5 12 1 17 26 19 34 3 40 21 10 26 -10 2 -28 13 -40 25
-13 11 -26 18 -29 14 -4 -4 1 -9 10 -13 20 -8 21 -24 1 -24 -8 0 -20 9 -27 20
-13 21 -15 22 -35 13z"/>
<path d="M2550 2830 c0 -5 -8 -10 -17 -11 -10 0 -5 -5 11 -9 17 -6 36 -5 45 0
14 8 14 9 -1 10 -10 0 -18 5 -18 10 0 6 -4 10 -10 10 -5 0 -10 -4 -10 -10z"/>
<path d="M1680 2815 c0 -8 -5 -15 -12 -15 -6 0 -9 -2 -6 -5 8 -9 36 5 42 21 3
8 -1 14 -9 14 -8 0 -15 -7 -15 -15z"/>
<path d="M1756 2821 c-4 -7 -5 -15 -2 -18 9 -9 19 4 14 18 -4 11 -6 11 -12 0z"/>
<path d="M2065 2820 c-3 -5 -1 -10 5 -10 6 0 8 -5 4 -12 -5 -9 -2 -9 9 1 9 7
17 17 17 22 0 12 -27 11 -35 -1z"/>
<path d="M2142 2818 c3 -7 13 -15 22 -16 12 -3 17 1 14 10 -3 7 -13 15 -22 16
-12 3 -17 -1 -14 -10z"/>
<path d="M1913 2812 c-14 -9 -6 -23 23 -39 29 -16 53 0 38 24 -12 20 -42 27
-61 15z"/>
<path d="M930 2794 l-25 -14 27 0 c15 0 29 4 33 9 9 16 -9 18 -35 5z"/>
<path d="M841 2784 c0 -11 3 -14 6 -6 3 7 2 16 -1 19 -3 4 -6 -2 -5 -13z"/>
<path d="M1774 2783 c-11 -11 -13 -18 -5 -21 6 -2 11 -8 11 -14 0 -5 7 -16 15
-25 22 -21 14 -37 -21 -41 -39 -5 -55 -21 -27 -28 13 -4 20 -11 16 -20 -3 -8
-2 -14 1 -14 4 0 11 12 17 26 9 25 10 26 29 9 10 -9 17 -22 15 -28 -3 -7 2
-21 10 -31 20 -27 40 -7 37 37 -2 26 3 35 28 49 26 15 31 15 45 2 10 -11 20
-12 31 -6 15 9 15 10 -5 17 -11 3 -19 11 -16 16 8 12 52 12 60 -1 14 -23 30
-8 30 28 1 31 -3 38 -20 38 -11 0 -28 -8 -37 -19 -9 -10 -22 -16 -27 -12 -6 3
-11 2 -11 -2 0 -5 -27 -9 -60 -9 -33 -1 -60 3 -60 8 0 4 11 8 24 8 13 0 26 7
30 15 4 12 0 14 -22 9 -15 -4 -34 -13 -43 -20 -20 -18 -33 -6 -14 13 8 8 15
19 15 24 0 15 -27 10 -46 -8z m66 -112 c0 -6 -4 -13 -10 -16 -5 -3 -10 1 -10
9 0 9 5 16 10 16 6 0 10 -4 10 -9z"/>
<path d="M2270 2781 c0 -11 5 -23 11 -27 7 -4 9 0 5 14 -5 15 -2 22 11 25 14
4 13 5 -4 6 -17 1 -23 -5 -23 -18z"/>
<path d="M2490 2785 c-16 -19 -1 -19 24 0 16 12 17 15 4 15 -8 0 -21 -7 -28
-15z"/>
<path d="M2885 2790 c-3 -5 1 -10 9 -10 9 0 16 5 16 10 0 6 -4 10 -9 10 -6 0
-13 -4 -16 -10z"/>
<path d="M2222 2774 c-10 -12 -10 -14 2 -14 17 0 30 16 19 23 -5 3 -14 -1 -21
-9z"/>
<path d="M1619 2764 c-9 -11 -22 -14 -46 -9 -37 7 -41 -3 -17 -40 9 -13 13
-29 9 -35 -8 -13 14 -42 26 -34 5 3 9 0 9 -5 0 -6 -7 -11 -15 -11 -13 0 -17
-6 -14 -26 1 -11 -25 -24 -48 -24 -17 0 -23 6 -23 21 0 14 5 19 14 16 12 -5
26 11 26 29 0 13 -34 0 -54 -21 -13 -13 -26 -22 -29 -18 -4 3 -7 -1 -7 -9 0
-9 -6 -18 -12 -21 -7 -2 -9 -8 -5 -13 4 -4 17 -3 27 4 28 17 32 15 25 -10 -3
-13 -3 -18 2 -13 11 14 43 15 43 2 0 -5 9 -2 20 8 19 17 20 17 20 1 0 -9 -4
-14 -10 -11 -18 11 -11 -37 8 -51 10 -8 12 -13 5 -14 -7 0 -13 -9 -13 -20 0
-15 7 -20 25 -20 18 0 25 5 25 20 0 11 -4 20 -10 20 -15 0 -29 35 -24 58 4 12
11 19 20 15 8 -3 14 0 14 6 0 6 10 11 21 11 18 0 19 3 9 15 -10 12 -9 16 3 21
24 9 80 -50 72 -75 -4 -15 -2 -19 12 -16 10 2 21 4 25 4 3 1 -2 19 -13 41 -10
21 -19 43 -19 49 0 5 -10 11 -22 13 -21 3 -21 4 -4 21 18 17 17 18 -4 37 -12
10 -19 23 -16 29 3 5 -3 7 -14 4 -16 -4 -19 -2 -14 11 3 9 10 13 15 10 12 -7
11 3 -1 27 -13 23 -23 24 -41 3z m21 -14 c0 -5 -4 -10 -10 -10 -5 0 -10 5 -10
10 0 6 5 10 10 10 6 0 10 -4 10 -10z m-21 -40 c5 -17 6 -28 1 -25 -5 3 -12 0
-16 -7 -5 -7 -10 -4 -16 12 -5 14 -4 28 3 36 15 19 15 18 28 -16z m-19 -100
c0 -5 -5 -10 -11 -10 -5 0 -7 5 -4 10 3 6 8 10 11 10 2 0 4 -4 4 -10z"/>
<path d="M1596 2707 c3 -10 9 -15 12 -12 3 3 0 11 -7 18 -10 9 -11 8 -5 -6z"/>
<path d="M2081 2767 c2 -1 12 -9 22 -16 14 -12 17 -11 17 3 0 10 -8 16 -22 16
-12 0 -19 -1 -17 -3z"/>
<path d="M3147 2753 c-12 -12 -7 -20 18 -31 39 -18 66 -15 33 4 -16 8 -28 19
-28 24 0 11 -13 13 -23 3z"/>
<path d="M3285 2750 c-3 -5 -1 -10 4 -10 6 0 11 5 11 10 0 6 -2 10 -4 10 -3 0
-8 -4 -11 -10z"/>
<path d="M1258 2733 c7 -3 16 -2 19 1 4 3 -2 6 -13 5 -11 0 -14 -3 -6 -6z"/>
<path d="M817 2707 c-9 -25 -10 -24 13 -30 11 -3 20 -1 20 4 0 5 -4 9 -9 9 -5
0 -11 8 -13 18 -3 16 -4 16 -11 -1z"/>
<path d="M1183 2705 c-3 -9 -3 -19 1 -22 3 -4 6 1 6 10 0 8 6 18 13 20 9 4 9
6 -1 6 -7 1 -15 -6 -19 -14z"/>
<path d="M1765 2710 c-3 -6 1 -7 9 -4 18 7 21 14 7 14 -6 0 -13 -4 -16 -10z"/>
<path d="M2187 2713 c-4 -3 -7 -11 -7 -17 0 -6 5 -5 12 2 6 6 9 14 7 17 -3 3
-9 2 -12 -2z"/>
<path d="M2870 2707 c0 -8 11 -22 25 -31 14 -9 25 -12 25 -7 0 6 8 7 18 4 15
-6 15 -5 3 11 -8 9 -20 15 -27 12 -8 -3 -13 0 -11 6 1 7 -6 14 -15 16 -11 2
-18 -2 -18 -11z"/>
<path d="M2304 2685 c-17 -13 -17 -14 -2 -15 9 0 20 5 23 11 11 17 0 20 -21 4z"/>
<path d="M1092 2661 c-11 -6 -10 -11 3 -25 22 -21 32 -20 38 3 3 12 -1 22 -10
25 -18 7 -15 7 -31 -3z"/>
<path d="M1914 2654 c4 -9 2 -22 -3 -28 -12 -15 4 -56 22 -56 8 0 22 9 33 21
14 15 15 20 4 17 -10 -2 -14 4 -12 20 2 15 -2 22 -12 22 -9 0 -16 5 -16 10 0
6 -5 10 -11 10 -6 0 -8 -7 -5 -16z"/>
<path d="M2360 2660 c0 -5 5 -10 11 -10 5 0 7 5 4 10 -3 6 -8 10 -11 10 -2 0
-4 -4 -4 -10z"/>
<path d="M2810 2660 c0 -5 9 -10 21 -10 11 0 17 5 14 10 -3 6 -13 10 -21 10
-8 0 -14 -4 -14 -10z"/>
<path d="M925 2651 c-3 -5 -1 -12 5 -16 5 -3 10 1 10 9 0 18 -6 21 -15 7z"/>
<path d="M1057 2653 c-4 -3 -7 -11 -7 -17 0 -6 5 -5 12 2 6 6 9 14 7 17 -3 3
-9 2 -12 -2z"/>
<path d="M2728 2654 c-4 -4 -3 -14 2 -24 5 -10 6 -20 3 -24 -9 -9 28 -6 52 4
18 8 18 9 -5 9 -20 1 -22 3 -10 11 12 8 11 10 -7 10 -12 0 -23 5 -25 11 -2 5
-7 7 -10 3z"/>
<path d="M3280 2650 c0 -5 5 -10 11 -10 5 0 7 5 4 10 -3 6 -8 10 -11 10 -2 0
-4 -4 -4 -10z"/>
<path d="M805 2640 c3 -5 8 -10 11 -10 2 0 4 5 4 10 0 6 -5 10 -11 10 -5 0 -7
-4 -4 -10z"/>
<path d="M1421 2623 c-18 -20 -6 -29 14 -10 8 9 12 18 8 20 -5 3 -14 -2 -22
-10z"/>
<path d="M2004 2619 c-5 -9 37 -20 48 -13 4 3 8 9 8 14 0 9 -50 8 -56 -1z"/>
<path d="M3035 2620 c3 -5 8 -10 11 -10 2 0 4 5 4 10 0 6 -5 10 -11 10 -5 0
-7 -4 -4 -10z"/>
<path d="M1365 2610 c3 -5 8 -10 11 -10 2 0 4 5 4 10 0 6 -5 10 -11 10 -5 0
-7 -4 -4 -10z"/>
<path d="M1768 2613 c-28 -4 -36 -17 -19 -27 5 -3 20 3 32 14 13 11 22 19 19
18 -3 0 -17 -3 -32 -5z"/>
<path d="M2830 2611 c0 -17 18 -21 24 -6 3 9 0 15 -9 15 -8 0 -15 -4 -15 -9z"/>
<path d="M1077 2592 c-15 -16 -15 -19 4 -30 11 -7 18 -19 16 -26 -4 -9 3 -13
18 -13 16 0 22 4 18 13 -3 8 -11 14 -18 14 -16 0 -29 35 -20 50 10 16 0 12
-18 -8z"/>
<path d="M1266 2595 c-16 -12 -17 -15 -4 -15 9 0 18 7 22 15 7 18 6 18 -18 0z"/>
<path d="M897 2578 c-10 -11 -17 -20 -15 -21 2 -1 13 -8 25 -14 22 -12 22 -12
16 20 -3 17 -6 32 -7 33 -1 0 -9 -8 -19 -18z"/>
<path d="M2920 2585 c0 -16 16 -20 24 -6 3 5 -1 11 -9 15 -9 3 -15 0 -15 -9z"/>
<path d="M1370 2570 c0 -5 5 -10 10 -10 6 0 10 5 10 10 0 6 -4 10 -10 10 -5 0
-10 -4 -10 -10z"/>
<path d="M1860 2570 c0 -5 5 -10 10 -10 6 0 10 5 10 10 0 6 -4 10 -10 10 -5 0
-10 -4 -10 -10z"/>
<path d="M1960 2565 c-7 -9 -6 -16 3 -23 18 -15 56 -4 54 16 -1 20 -42 25 -57
7z"/>
<path d="M2470 2559 c7 -11 14 -19 16 -16 7 7 -7 37 -17 37 -6 0 -5 -9 1 -21z"/>
<path d="M800 2544 c0 -8 5 -12 10 -9 6 3 10 10 10 16 0 5 -4 9 -10 9 -5 0
-10 -7 -10 -16z"/>
<path d="M1150 2540 c0 -17 3 -18 25 -8 27 12 24 28 -6 28 -12 0 -19 -7 -19
-20z"/>
<path d="M1640 2546 c0 -9 5 -16 10 -16 6 0 10 4 10 9 0 6 -4 13 -10 16 -5 3
-10 -1 -10 -9z"/>
<path d="M2770 2550 c-7 -4 -20 -6 -29 -3 -11 4 -13 3 -6 -4 6 -6 22 -13 38
-17 20 -5 27 -3 27 8 0 20 -13 27 -30 16z"/>
<path d="M2886 2551 c-4 -5 1 -8 9 -7 21 3 31 16 12 16 -9 0 -18 -4 -21 -9z"/>
<path d="M3090 2545 c0 -8 -4 -15 -10 -15 -5 0 -10 -8 -10 -19 0 -21 24 -23
55 -4 19 11 19 12 1 32 -22 25 -36 27 -36 6z"/>
<path d="M1284 2539 c-3 -6 -2 -15 3 -20 5 -5 9 -1 9 11 0 23 -2 24 -12 9z"/>
<path d="M1905 2539 c4 -5 1 -9 -5 -9 -6 0 -8 -4 -5 -10 3 -5 1 -10 -5 -10 -6
0 1 -12 15 -27 27 -29 31 -43 15 -43 -5 0 -10 -4 -10 -9 0 -15 41 -24 53 -12
8 8 15 7 26 -3 15 -13 81 -26 80 -16 0 3 -2 15 -5 27 l-6 22 -20 -22 -19 -22
4 28 c5 33 -21 52 -59 43 -29 -8 -50 24 -35 52 8 14 6 18 -10 19 -11 1 -17 -2
-14 -8z"/>
<path d="M2340 2538 c0 -9 5 -20 10 -23 13 -8 13 5 0 25 -8 13 -10 13 -10 -2z"/>
<path d="M985 2530 c3 -5 8 -10 11 -10 2 0 4 5 4 10 0 6 -5 10 -11 10 -5 0 -7
-4 -4 -10z"/>
<path d="M675 2519 c-4 -6 -5 -13 -2 -16 7 -7 27 6 27 18 0 12 -17 12 -25 -2z"/>
<path d="M1410 2521 c0 -5 5 -13 10 -16 6 -3 10 -2 10 4 0 5 -4 13 -10 16 -5
3 -10 2 -10 -4z"/>
<path d="M2490 2525 c0 -11 28 -35 40 -35 21 0 5 35 -18 38 -12 2 -22 1 -22
-3z"/>
<path d="M2960 2520 c0 -5 9 -10 21 -10 11 0 17 5 14 10 -3 6 -13 10 -21 10
-8 0 -14 -4 -14 -10z"/>
<path d="M830 2510 c0 -5 5 -10 11 -10 5 0 7 5 4 10 -3 6 -8 10 -11 10 -2 0
-4 -4 -4 -10z"/>
<path d="M1792 2455 c-50 -45 -84 -56 -99 -33 -4 8 -10 0 -14 -22 -5 -21 -3
-37 3 -41 7 -4 6 -13 -1 -28 -10 -18 -9 -21 9 -21 17 0 20 4 15 20 -4 14 -2
20 8 20 8 0 17 9 20 21 3 12 10 18 17 14 6 -4 17 -1 25 5 22 18 36 3 25 -26
-14 -36 -12 -44 8 -44 10 0 23 -5 29 -11 8 -8 13 -7 18 2 5 8 4 10 -3 5 -7 -4
-12 -2 -12 4 0 6 -10 15 -22 20 -13 5 -17 9 -10 9 6 1 12 12 12 25 0 13 3 26
8 29 4 2 1 2 -5 1 -7 -2 -13 1 -13 5 0 5 -3 17 -7 27 -5 14 -2 16 20 10 22 -5
25 -3 20 11 -4 10 -2 14 4 10 6 -4 13 2 16 13 8 33 -17 24 -71 -25z"/>
<path d="M878 2478 c5 -5 16 -8 23 -6 8 3 3 7 -10 11 -17 4 -21 3 -13 -5z"/>
<path d="M3050 2481 c0 -9 -9 -12 -26 -8 -24 4 -25 3 -10 -11 15 -15 17 -15
33 1 9 9 14 20 10 23 -4 4 -7 2 -7 -5z"/>
<path d="M687 2465 c-4 -8 -2 -17 3 -20 6 -4 10 3 10 14 0 25 -6 27 -13 6z"/>
<path d="M2910 2469 c0 -5 5 -7 10 -4 6 3 10 8 10 11 0 2 -4 4 -10 4 -5 0 -10
-5 -10 -11z"/>
<path d="M3146 2471 c-3 -5 1 -11 9 -15 9 -3 15 0 15 9 0 16 -16 20 -24 6z"/>
<path d="M525 2457 c-4 -10 -5 -21 -1 -24 10 -10 18 4 13 24 -4 17 -4 17 -12
0z"/>
<path d="M922 2458 c-15 -15 -15 -28 -1 -28 15 0 39 26 32 34 -9 9 -18 7 -31
-6z"/>
<path d="M1505 2460 c3 -5 8 -10 11 -10 2 0 4 5 4 10 0 6 -5 10 -11 10 -5 0
-7 -4 -4 -10z"/>
<path d="M2411 2454 c0 -11 3 -14 6 -6 3 7 2 16 -1 19 -3 4 -6 -2 -5 -13z"/>
<path d="M1055 2446 c-22 -12 -44 -37 -45 -49 0 -5 5 -5 11 -2 11 8 40 -25 33
-37 -3 -5 -1 -8 5 -8 19 0 24 23 7 32 -21 12 -21 37 1 54 23 16 14 25 -12 10z"/>
<path d="M2230 2452 c0 -4 9 -13 21 -20 19 -12 19 -11 9 8 -10 19 -30 28 -30
12z"/>
<path d="M2315 2429 c-9 -28 -1 -33 21 -12 9 10 19 17 21 16 2 -2 4 0 6 4 1 3
-8 8 -20 9 -15 3 -24 -3 -28 -17z"/>
<path d="M1510 2431 c0 -6 4 -12 8 -15 5 -3 9 1 9 9 0 8 -4 15 -9 15 -4 0 -8
-4 -8 -9z"/>
<path d="M2595 2429 c-4 -6 -5 -12 -2 -15 2 -3 7 2 10 11 7 17 1 20 -8 4z"/>
<path d="M639 2403 c-13 -16 -12 -17 4 -4 9 7 17 15 17 17 0 8 -8 3 -21 -13z"/>
<path d="M985 2410 c3 -5 8 -10 11 -10 2 0 4 5 4 10 0 6 -5 10 -11 10 -5 0 -7
-4 -4 -10z"/>
<path d="M1330 2400 c0 -5 7 -10 15 -10 8 0 15 5 15 10 0 6 -7 10 -15 10 -8 0
-15 -4 -15 -10z"/>
<path d="M1414 2385 c-4 -14 -3 -29 0 -33 9 -8 26 18 26 41 0 26 -19 20 -26
-8z"/>
<path d="M1465 2399 c-10 -14 -1 -21 19 -13 9 3 13 10 10 15 -7 12 -21 11 -29
-2z"/>
<path d="M923 2393 c-7 -3 -13 -13 -13 -24 0 -14 -7 -19 -25 -19 -18 0 -25 -5
-25 -20 0 -11 5 -20 10 -20 6 0 10 5 10 10 0 6 6 10 13 10 7 0 23 13 35 29 21
29 19 43 -5 34z"/>
<path d="M1980 2389 c0 -6 -8 -8 -19 -4 -11 3 -22 2 -25 -4 -3 -5 -15 -7 -26
-4 -11 3 -20 3 -20 1 0 -10 56 -65 73 -71 9 -4 17 -15 17 -26 0 -11 4 -22 9
-25 12 -8 21 18 14 43 -3 12 -1 21 6 21 6 0 11 5 11 10 0 6 -7 10 -15 10 -8 0
-15 -6 -15 -12 0 -10 -2 -10 -8 0 -5 7 -16 10 -25 6 -18 -6 -22 3 -9 22 10 15
42 25 42 13 0 -6 4 -8 9 -5 5 4 11 1 13 -5 2 -5 11 -7 21 -4 9 4 15 11 12 16
-3 4 -12 6 -20 3 -8 -4 -18 1 -21 10 -7 18 -24 22 -24 5z"/>
<path d="M1090 2375 c0 -9 5 -15 11 -13 6 2 11 8 11 13 0 5 -5 11 -11 13 -6 2
-11 -4 -11 -13z"/>
<path d="M1260 2380 c0 -5 5 -10 11 -10 5 0 7 5 4 10 -3 6 -8 10 -11 10 -2 0
-4 -4 -4 -10z"/>
<path d="M3242 2370 c0 -14 2 -19 5 -12 2 6 2 18 0 25 -3 6 -5 1 -5 -13z"/>
<path d="M3330 2378 c0 -9 5 -20 11 -23 17 -11 18 -2 3 19 -12 17 -14 17 -14
4z"/>
<path d="M785 2360 c3 -5 8 -10 11 -10 2 0 4 5 4 10 0 6 -5 10 -11 10 -5 0 -7
-4 -4 -10z"/>
<path d="M2191 2343 c-1 -18 4 -33 9 -33 12 0 12 17 0 45 -7 17 -9 15 -9 -12z"/>
<path d="M1495 2350 c3 -5 13 -10 21 -10 8 0 14 5 14 10 0 6 -9 10 -21 10 -11
0 -17 -4 -14 -10z"/>
<path d="M545 2340 c-3 -5 -1 -10 4 -10 6 0 11 5 11 10 0 6 -2 10 -4 10 -3 0
-8 -4 -11 -10z"/>
<path d="M2307 2336 c-3 -8 2 -20 11 -28 12 -10 14 -10 8 0 -4 7 -1 15 8 18 9
3 13 10 10 15 -8 14 -31 11 -37 -5z"/>
<path d="M636 2325 c4 -8 12 -15 20 -15 8 0 11 6 8 15 -4 8 -12 15 -20 15 -8
0 -11 -6 -8 -15z"/>
<path d="M1172 2331 c2 -7 7 -12 11 -12 12 1 9 15 -3 20 -7 2 -11 -2 -8 -8z"/>
<path d="M1380 2330 c0 -5 -6 -7 -13 -4 -8 3 -20 -2 -27 -11 -12 -15 -9 -16
31 -11 24 2 46 5 48 5 2 1 -2 8 -9 16 -14 17 -30 20 -30 5z"/>
<path d="M1280 2320 c0 -5 5 -10 10 -10 6 0 10 5 10 10 0 6 -4 10 -10 10 -5 0
-10 -4 -10 -10z"/>
<path d="M3210 2321 c0 -5 5 -13 10 -16 6 -3 10 -2 10 4 0 5 -4 13 -10 16 -5
3 -10 2 -10 -4z"/>
<path d="M1235 2311 c-9 -15 8 -35 24 -30 8 3 7 10 -2 23 -10 14 -16 16 -22 7z"/>
<path d="M2116 2312 c-3 -6 3 -12 15 -15 12 -3 19 -1 16 6 -5 15 -24 20 -31 9z"/>
<path d="M1443 2302 c-7 -4 -9 -13 -4 -21 10 -16 31 -6 31 15 0 16 -9 18 -27
6z"/>
<path d="M2215 2301 c-2 -5 4 -11 15 -14 11 -3 20 -2 20 3 0 12 -28 21 -35 11z"/>
<path d="M2730 2294 c0 -8 10 -14 25 -14 16 0 23 5 19 13 -6 18 -44 19 -44 1z"/>
<path d="M3277 2303 c-4 -3 -7 -13 -7 -21 0 -12 3 -12 15 -2 8 7 15 16 15 21
0 11 -14 12 -23 2z"/>
<path d="M1880 2294 c0 -12 52 -55 59 -48 3 4 0 9 -7 11 -6 3 -9 9 -6 15 4 6
0 14 -7 19 -16 10 -39 12 -39 3z"/>
<path d="M2650 2290 c8 -5 20 -10 25 -10 6 0 3 5 -5 10 -8 5 -19 10 -25 10 -5
0 -3 -5 5 -10z"/>
<path d="M2695 2290 c3 -5 11 -10 16 -10 6 0 7 5 4 10 -3 6 -11 10 -16 10 -6
0 -7 -4 -4 -10z"/>
<path d="M3355 2290 c-4 -7 2 -22 14 -33 15 -16 21 -18 21 -7 -1 24 -27 53
-35 40z"/>
<path d="M780 2280 c0 -5 5 -10 10 -10 6 0 10 5 10 10 0 6 -4 10 -10 10 -5 0
-10 -4 -10 -10z"/>
<path d="M2092 2279 c-12 -5 -30 -6 -40 -2 -14 5 -14 3 3 -14 20 -20 45 -17
60 8 10 15 3 18 -23 8z"/>
<path d="M2300 2281 c0 -5 3 -17 6 -26 5 -12 9 -14 14 -4 5 7 6 18 3 26 -6 15
-23 18 -23 4z"/>
<path d="M650 2271 c0 -21 13 -41 26 -41 17 0 17 10 0 33 -14 19 -26 22 -26 8z"/>
<path d="M1090 2254 c0 -8 5 -12 10 -9 6 3 10 10 10 16 0 5 -4 9 -10 9 -5 0
-10 -7 -10 -16z"/>
<path d="M1250 2260 c0 -5 5 -10 11 -10 5 0 7 5 4 10 -3 6 -8 10 -11 10 -2 0
-4 -4 -4 -10z"/>
<path d="M1475 2260 c-3 -5 -1 -10 4 -10 6 0 11 5 11 10 0 6 -2 10 -4 10 -3 0
-8 -4 -11 -10z"/>
<path d="M1600 2260 c0 -5 7 -10 15 -10 8 0 15 5 15 10 0 6 -7 10 -15 10 -8 0
-15 -4 -15 -10z"/>
<path d="M2170 2260 c0 -5 7 -10 16 -10 8 0 12 5 9 10 -3 6 -10 10 -16 10 -5
0 -9 -4 -9 -10z"/>
<path d="M1288 2253 c7 -3 16 -2 19 1 4 3 -2 6 -13 5 -11 0 -14 -3 -6 -6z"/>
<path d="M757 2236 c-4 -10 -5 -21 -2 -24 9 -9 17 6 13 25 -3 17 -4 17 -11 -1z"/>
<path d="M1520 2235 c-7 -8 -9 -15 -4 -15 5 0 19 -3 31 -6 18 -5 21 -3 16 15
-6 25 -25 27 -43 6z"/>
<path d="M2266 2235 c-18 -14 -18 -15 4 -33 18 -14 27 -16 36 -8 10 9 10 13 0
21 -7 6 -15 15 -17 22 -3 8 -9 8 -23 -2z"/>
<path d="M716 2225 c-3 -8 -1 -15 4 -15 6 0 10 7 10 15 0 8 -2 15 -4 15 -2 0
-6 -7 -10 -15z"/>
<path d="M2175 2230 c3 -5 8 -10 11 -10 2 0 4 5 4 10 0 6 -5 10 -11 10 -5 0
-7 -4 -4 -10z"/>
<path d="M2420 2232 c-5 -2 -10 -7 -10 -12 0 -13 63 -7 67 6 4 11 -31 14 -57
6z"/>
<path d="M1160 2223 c0 -4 7 -17 16 -28 14 -19 14 -19 11 5 -3 22 -27 43 -27
23z"/>
<path d="M1330 2220 c-13 -8 -12 -10 4 -10 11 0 28 -8 40 -17 20 -18 20 -18 0
9 -21 31 -23 31 -44 18z"/>
<path d="M1590 2215 c0 -9 7 -18 16 -22 8 -3 13 -12 10 -19 -3 -8 -2 -14 3
-14 15 0 18 45 5 58 -18 17 -34 15 -34 -3z"/>
<path d="M2761 2214 c0 -11 3 -14 6 -6 3 7 2 16 -1 19 -3 4 -6 -2 -5 -13z"/>
<path d="M2540 2210 c0 -5 5 -10 11 -10 5 0 7 5 4 10 -3 6 -8 10 -11 10 -2 0
-4 -4 -4 -10z"/>
<path d="M965 2200 c3 -5 11 -10 16 -10 6 0 7 5 4 10 -3 6 -11 10 -16 10 -6 0
-7 -4 -4 -10z"/>
<path d="M1020 2200 c0 -5 5 -10 10 -10 6 0 10 5 10 10 0 6 -4 10 -10 10 -5 0
-10 -4 -10 -10z"/>
<path d="M1787 2180 c-20 -23 -21 -30 -7 -30 10 0 50 36 50 45 0 13 -27 3 -43
-15z"/>
<path d="M2165 2179 c1 -11 8 -25 16 -30 22 -14 33 -11 19 6 -7 8 -9 15 -5 15
4 0 2 7 -5 15 -17 21 -27 19 -25 -6z"/>
<path d="M2490 2190 c0 -5 5 -10 10 -10 6 0 10 5 10 10 0 6 -4 10 -10 10 -5 0
-10 -4 -10 -10z"/>
<path d="M1084 2179 c-3 -6 -1 -16 5 -22 8 -8 11 -5 11 11 0 24 -5 28 -16 11z"/>
<path d="M1695 2180 c-3 -5 1 -10 10 -10 9 0 13 5 10 10 -3 6 -8 10 -10 10 -2
0 -7 -4 -10 -10z"/>
<path d="M3470 2180 c0 -5 5 -10 11 -10 5 0 7 5 4 10 -3 6 -8 10 -11 10 -2 0
-4 -4 -4 -10z"/>
<path d="M3530 2183 c0 -6 8 -17 18 -24 16 -13 16 -13 2 6 -8 11 -16 22 -17
24 -2 2 -3 0 -3 -6z"/>
<path d="M2330 2169 c0 -5 5 -7 10 -4 6 3 10 8 10 11 0 2 -4 4 -10 4 -5 0 -10
-5 -10 -11z"/>
<path d="M2555 2170 c3 -5 8 -10 11 -10 2 0 4 5 4 10 0 6 -5 10 -11 10 -5 0
-7 -4 -4 -10z"/>
<path d="M2698 2173 c7 -3 16 -2 19 1 4 3 -2 6 -13 5 -11 0 -14 -3 -6 -6z"/>
<path d="M3138 2173 c7 -3 16 -2 19 1 4 3 -2 6 -13 5 -11 0 -14 -3 -6 -6z"/>
<path d="M1220 2148 c0 -9 5 -20 10 -23 13 -8 13 5 0 25 -8 13 -10 13 -10 -2z"/>
<path d="M1314 2141 c-5 -5 -18 -11 -29 -14 -19 -5 -19 -5 3 -12 12 -4 22 -13
22 -21 0 -30 18 -21 22 12 4 37 -2 49 -18 35z"/>
<path d="M1590 2140 c0 -5 5 -10 10 -10 6 0 10 5 10 10 0 6 -4 10 -10 10 -5 0
-10 -4 -10 -10z"/>
<path d="M2263 2135 c-29 -13 -30 -29 -1 -20 17 6 20 4 15 -9 -4 -10 -1 -16 8
-16 16 0 20 28 7 45 -5 7 -14 7 -29 0z"/>
<path d="M3455 2140 c-3 -5 -1 -10 4 -10 6 0 11 5 11 10 0 6 -2 10 -4 10 -3 0
-8 -4 -11 -10z"/>
<path d="M1674 2126 c-3 -9 -12 -16 -20 -16 -8 0 -11 -6 -8 -15 4 -8 11 -15
18 -15 15 0 37 48 25 56 -5 3 -12 -2 -15 -10z"/>
<path d="M1775 2126 c-11 -6 -22 -12 -24 -13 -2 -2 1 -9 8 -17 17 -20 44 -13
47 12 5 27 -6 33 -31 18z"/>
<path d="M2765 2130 c-3 -5 -2 -10 4 -10 5 0 13 5 16 10 3 6 2 10 -4 10 -5 0
-13 -4 -16 -10z"/>
<path d="M2865 2130 c3 -5 13 -10 21 -10 8 0 14 5 14 10 0 6 -9 10 -21 10 -11
0 -17 -4 -14 -10z"/>
<path d="M810 2120 c0 -5 5 -10 10 -10 6 0 10 5 10 10 0 6 -4 10 -10 10 -5 0
-10 -4 -10 -10z"/>
<path d="M2935 2121 c-6 -11 9 -23 19 -14 9 9 7 23 -3 23 -6 0 -12 -4 -16 -9z"/>
<path d="M1857 2113 c-4 -3 -7 -11 -7 -17 0 -6 5 -5 12 2 6 6 9 14 7 17 -3 3
-9 2 -12 -2z"/>
<path d="M1890 2106 c0 -8 -8 -23 -17 -32 -17 -17 -17 -18 0 -11 10 4 22 7 25
7 4 0 8 11 8 25 1 14 -2 25 -7 25 -5 0 -9 -6 -9 -14z"/>
<path d="M2491 2106 c-8 -10 -9 -16 -1 -21 5 -3 13 1 16 10 9 22 -1 29 -15 11z"/>
<path d="M3080 2110 c0 -5 5 -10 11 -10 5 0 7 5 4 10 -3 6 -8 10 -11 10 -2 0
-4 -4 -4 -10z"/>
<path d="M990 2095 c0 -8 5 -15 10 -15 6 0 10 7 10 15 0 8 -4 15 -10 15 -5 0
-10 -7 -10 -15z"/>
<path d="M2210 2095 c7 -8 16 -15 21 -15 5 0 6 7 3 15 -4 8 -13 15 -21 15 -13
0 -13 -3 -3 -15z"/>
<path d="M2360 2096 c0 -8 5 -18 10 -21 6 -3 10 1 10 9 0 8 -4 18 -10 21 -5 3
-10 -1 -10 -9z"/>
<path d="M2527 2090 c5 -20 15 -25 26 -13 8 7 -11 33 -23 33 -5 0 -6 -9 -3
-20z"/>
<path d="M1181 2078 c-8 -21 -17 -28 -38 -28 -26 -1 -27 -2 -10 -14 14 -11 23
-11 42 -2 29 13 35 24 25 51 -7 19 -9 18 -19 -7z"/>
<path d="M1510 2083 c-14 -9 -28 -22 -32 -27 -5 -7 -11 -6 -18 4 -13 20 -13 6
1 -24 13 -28 29 -25 29 5 0 10 6 19 13 19 7 0 18 9 25 20 15 24 13 25 -18 3z"/>
<path d="M2750 2097 c0 -5 9 -22 21 -38 21 -30 45 -40 36 -14 -4 8 -2 17 4 20
17 11 -1 26 -19 16 -11 -6 -20 -4 -29 7 -7 10 -13 13 -13 9z"/>
<path d="M780 2086 c0 -2 7 -7 16 -10 8 -3 12 -2 9 4 -6 10 -25 14 -25 6z"/>
<path d="M1980 2081 c0 -5 8 -11 18 -15 9 -3 24 -9 32 -12 10 -5 9 0 -4 15
-19 21 -46 29 -46 12z"/>
<path d="M2950 2083 c0 -4 5 -15 10 -23 8 -13 10 -13 10 2 0 9 -4 20 -10 23
-5 3 -10 3 -10 -2z"/>
<path d="M3120 2080 c0 -5 5 -10 10 -10 6 0 10 5 10 10 0 6 -4 10 -10 10 -5 0
-10 -4 -10 -10z"/>
<path d="M2450 2070 c0 -5 5 -10 11 -10 5 0 7 5 4 10 -3 6 -8 10 -11 10 -2 0
-4 -4 -4 -10z"/>
<path d="M2570 2063 c0 -13 5 -23 10 -23 13 0 13 11 0 30 -8 12 -10 11 -10 -7z"/>
<path d="M2690 2061 c0 -11 5 -23 10 -26 6 -4 8 -10 5 -15 -3 -4 -2 -15 1 -23
4 -12 11 -13 35 -5 35 12 36 20 7 33 -13 6 -27 20 -33 33 -12 27 -25 29 -25 3z"/>
<path d="M1355 2060 c-9 -15 16 -43 27 -32 10 10 0 42 -12 42 -5 0 -12 -5 -15
-10z"/>
<path d="M1580 2062 c0 -12 19 -26 26 -19 2 2 -2 10 -11 17 -9 8 -15 8 -15 2z"/>
<path d="M2395 2060 c-4 -6 -4 -10 -1 -10 2 0 11 -3 20 -6 9 -3 16 -2 16 4 0
14 -28 23 -35 12z"/>
<path d="M1070 2050 c0 -5 -7 -10 -15 -10 -22 0 -18 -21 5 -27 11 -3 20 -9 20
-14 0 -5 5 -9 10 -9 6 0 10 7 10 15 0 8 -4 15 -9 15 -5 0 -7 9 -4 20 3 11 0
20 -6 20 -6 0 -11 -4 -11 -10z"/>
<path d="M2500 2050 c0 -5 5 -10 10 -10 6 0 10 5 10 10 0 6 -4 10 -10 10 -5 0
-10 -4 -10 -10z"/>
<path d="M2640 2041 c0 -11 5 -23 10 -26 6 -3 10 1 10 9 0 9 0 19 1 23 0 4 -4
9 -10 11 -6 2 -11 -5 -11 -17z"/>
<path d="M3215 2049 c-4 -6 -5 -13 -2 -16 7 -7 27 6 27 18 0 12 -17 12 -25 -2z"/>
<path d="M1730 2023 c0 -25 1 -26 16 -11 9 9 13 21 10 27 -13 20 -26 11 -26
-16z"/>
<path d="M1937 2043 c-4 -3 -7 -10 -7 -14 0 -11 29 -19 35 -10 6 11 -20 33
-28 24z"/>
<path d="M2180 2035 c-11 -13 -10 -14 4 -9 9 3 16 10 16 15 0 13 -6 11 -20 -6z"/>
<path d="M3291 2034 c0 -11 3 -14 6 -6 3 7 2 16 -1 19 -3 4 -6 -2 -5 -13z"/>
<path d="M1790 2032 c0 -5 7 -16 16 -23 14 -12 16 -11 13 5 -4 20 -29 35 -29
18z"/>
<path d="M2220 2031 c0 -6 5 -13 10 -16 6 -3 10 1 10 9 0 9 -4 16 -10 16 -5 0
-10 -4 -10 -9z"/>
<path d="M3390 2025 c0 -8 7 -15 15 -15 9 0 12 6 9 15 -4 8 -10 15 -15 15 -5
0 -9 -7 -9 -15z"/>
<path d="M915 2020 c-3 -5 -1 -10 4 -10 6 0 11 5 11 10 0 6 -2 10 -4 10 -3 0
-8 -4 -11 -10z"/>
<path d="M1620 2010 c6 -11 16 -20 23 -19 9 0 9 2 0 6 -7 2 -13 11 -13 19 0 8
-5 14 -10 14 -7 0 -7 -6 0 -20z"/>
<path d="M2435 2020 c-3 -5 1 -10 9 -10 9 0 16 5 16 10 0 6 -4 10 -9 10 -6 0
-13 -4 -16 -10z"/>
<path d="M667 2014 c-4 -4 -7 -14 -7 -23 0 -11 3 -12 11 -4 6 6 10 16 7 23 -2
6 -7 8 -11 4z"/>
<path d="M2832 2004 c4 -21 22 -23 26 -1 2 10 -3 17 -13 17 -10 0 -15 -6 -13
-16z"/>
<path d="M1155 2000 c-11 -18 26 -23 43 -6 15 15 14 16 -10 16 -15 0 -30 -5
-33 -10z"/>
<path d="M1300 2001 c0 -5 7 -12 16 -15 14 -5 15 -4 4 9 -14 17 -20 19 -20 6z"/>
<path d="M2076 1995 c4 -8 8 -15 10 -15 2 0 4 7 4 15 0 8 -4 15 -10 15 -5 0
-7 -7 -4 -15z"/>
<path d="M2360 2000 c0 -5 7 -10 15 -10 8 0 15 5 15 10 0 6 -7 10 -15 10 -8 0
-15 -4 -15 -10z"/>
<path d="M2530 1990 c0 -11 4 -20 9 -20 5 0 7 9 4 20 -3 11 -7 20 -9 20 -2 0
-4 -9 -4 -20z"/>
<path d="M705 1990 c-3 -5 -1 -10 4 -10 6 0 11 5 11 10 0 6 -2 10 -4 10 -3 0
-8 -4 -11 -10z"/>
<path d="M1484 1973 c-2 -19 1 -22 12 -12 17 14 18 25 2 32 -8 3 -14 -5 -14
-20z"/>
<path d="M2100 1980 c0 -5 10 -10 23 -10 18 0 19 2 7 10 -19 13 -30 13 -30 0z"/>
<path d="M1140 1968 c0 -9 5 -20 11 -23 17 -11 20 0 4 21 -13 17 -14 17 -15 2z"/>
<path d="M1216 1972 c-3 -6 -1 -14 5 -17 15 -10 25 3 12 16 -7 7 -13 7 -17 1z"/>
<path d="M1595 1970 c5 -7 8 -31 6 -51 -2 -34 0 -37 21 -31 18 5 19 7 6 10
-13 3 -15 8 -8 27 7 18 4 27 -12 42 -13 10 -18 12 -13 3z"/>
<path d="M2240 1957 c1 -22 21 -57 34 -57 3 0 6 7 6 15 0 8 -5 15 -11 15 -6 0
-9 9 -6 19 3 12 -1 22 -9 25 -9 4 -14 -2 -14 -17z"/>
<path d="M2800 1955 c0 -25 14 -34 24 -16 8 12 -3 41 -15 41 -5 0 -9 -11 -9
-25z"/>
<path d="M3095 1966 c-12 -8 -16 -19 -12 -30 8 -20 26 -17 41 7 16 24 -5 41
-29 23z"/>
<path d="M3455 1970 c-3 -5 -1 -10 4 -10 6 0 11 5 11 10 0 6 -2 10 -4 10 -3 0
-8 -4 -11 -10z"/>
<path d="M2062 1954 c4 -21 22 -23 26 -1 2 10 -3 17 -13 17 -10 0 -15 -6 -13
-16z"/>
<path d="M2630 1960 c-12 -7 -9 -14 15 -39 17 -17 40 -31 53 -31 24 0 30 18 8
26 -8 3 -12 13 -9 25 4 13 0 19 -10 19 -8 0 -21 2 -29 5 -7 3 -20 1 -28 -5z"/>
<path d="M3216 1955 c4 -8 10 -15 15 -15 5 0 9 7 9 15 0 8 -7 15 -15 15 -9 0
-12 -6 -9 -15z"/>
<path d="M3310 1962 c0 -5 7 -9 15 -9 8 0 12 4 9 9 -3 4 -9 8 -15 8 -5 0 -9
-4 -9 -8z"/>
<path d="M1935 1947 c-10 -8 -15 -19 -11 -25 12 -19 23 -14 28 13 6 29 7 29
-17 12z"/>
<path d="M3173 1953 c-19 -7 -16 -20 6 -26 14 -3 17 0 14 14 -3 11 -6 19 -7
18 0 0 -7 -3 -13 -6z"/>
<path d="M1340 1929 l-25 -19 26 0 c15 0 29 7 32 15 9 23 -6 25 -33 4z"/>
<path d="M2535 1940 c-4 -6 -11 -7 -17 -4 -7 4 -8 2 -4 -4 10 -17 36 -15 36 3
0 17 -6 19 -15 5z"/>
<path d="M1695 1930 c-3 -5 0 -10 7 -10 10 0 9 -3 -2 -11 -13 -9 -13 -10 0 -6
17 4 27 37 11 37 -5 0 -13 -4 -16 -10z"/>
<path d="M2144 1931 c4 -5 0 -12 -6 -14 -7 -3 -3 -6 10 -6 12 -1 22 -5 22 -11
0 -5 9 -10 20 -10 27 0 25 14 -5 34 -27 17 -50 21 -41 7z"/>
<path d="M2410 1931 c0 -5 5 -13 10 -16 6 -3 10 -2 10 4 0 5 -4 13 -10 16 -5
3 -10 2 -10 -4z"/>
<path d="M2760 1931 c0 -6 5 -13 10 -16 6 -3 10 1 10 9 0 9 -4 16 -10 16 -5 0
-10 -4 -10 -9z"/>
<path d="M1000 1915 c0 -9 6 -12 15 -9 8 4 15 10 15 15 0 5 -7 9 -15 9 -8 0
-15 -7 -15 -15z"/>
<path d="M1207 1923 c-15 -14 -6 -32 16 -30 21 1 37 13 37 30 0 9 -44 9 -53 0z"/>
<path d="M1416 1915 c-3 -9 0 -15 8 -15 7 0 19 7 26 15 10 12 9 15 -8 15 -11
0 -22 -7 -26 -15z"/>
<path d="M2960 1920 c0 -5 5 -10 10 -10 6 0 10 5 10 10 0 6 -4 10 -10 10 -5 0
-10 -4 -10 -10z"/>
<path d="M2595 1910 c-3 -5 -1 -10 4 -10 6 0 11 5 11 10 0 6 -2 10 -4 10 -3 0
-8 -4 -11 -10z"/>
<path d="M2926 1904 c-8 -20 -8 -19 22 -29 23 -7 23 -7 7 19 -20 31 -21 31
-29 10z"/>
<path d="M2787 1904 c-8 -8 3 -34 14 -34 5 0 9 9 9 20 0 19 -11 26 -23 14z"/>
<path d="M3106 1895 c-11 -8 -17 -18 -13 -21 10 -11 37 4 37 21 0 18 0 18 -24
0z"/>
<path d="M3330 1899 c0 -5 5 -7 10 -4 6 3 10 8 10 11 0 2 -4 4 -10 4 -5 0 -10
-5 -10 -11z"/>
<path d="M1780 1881 c0 -5 7 -12 16 -15 14 -5 15 -4 4 9 -14 17 -20 19 -20 6z"/>
<path d="M2226 1882 c-8 -13 39 -43 57 -36 9 3 13 13 10 25 -6 22 -14 24 -31
7 -10 -10 -15 -10 -21 1 -5 8 -11 9 -15 3z"/>
<path d="M2850 1879 c0 -5 5 -7 10 -4 6 3 10 8 10 11 0 2 -4 4 -10 4 -5 0 -10
-5 -10 -11z"/>
<path d="M3235 1880 c-3 -5 -1 -10 4 -10 6 0 11 5 11 10 0 6 -2 10 -4 10 -3 0
-8 -4 -11 -10z"/>
<path d="M1350 1861 c0 -20 36 -36 46 -20 3 5 -2 9 -10 9 -9 0 -16 7 -16 15 0
8 -4 15 -10 15 -5 0 -10 -8 -10 -19z"/>
<path d="M3160 1860 c0 -11 2 -20 4 -20 2 0 6 9 9 20 3 11 1 20 -4 20 -5 0 -9
-9 -9 -20z"/>
<path d="M3000 1858 c0 -14 18 -17 28 -5 8 10 6 13 -9 13 -10 0 -19 -4 -19 -8z"/>
<path d="M1728 1853 c6 -2 18 -2 25 0 6 3 1 5 -13 5 -14 0 -19 -2 -12 -5z"/>
<path d="M2155 1851 c-6 -11 9 -23 19 -14 9 9 7 23 -3 23 -6 0 -12 -4 -16 -9z"/>
<path d="M2400 1845 c0 -21 30 -31 40 -14 11 17 3 29 -21 29 -10 0 -19 -7 -19
-15z"/>
<path d="M1256 1843 c-11 -11 -6 -23 9 -23 8 0 15 4 15 9 0 13 -16 22 -24 14z"/>
<path d="M1445 1840 c-3 -5 -2 -10 4 -10 5 0 13 5 16 10 3 6 2 10 -4 10 -5 0
-13 -4 -16 -10z"/>
<path d="M1917 1840 c-12 -34 -15 -60 -6 -60 11 0 23 45 16 62 -3 10 -6 9 -10
-2z"/>
<path d="M1996 1842 c2 -3 -1 -11 -7 -18 -7 -8 -7 -14 1 -19 13 -8 26 24 13
34 -5 5 -8 6 -7 3z"/>
<path d="M2110 1835 c0 -8 5 -15 10 -15 6 0 10 7 10 15 0 8 -4 15 -10 15 -5 0
-10 -7 -10 -15z"/>
<path d="M2676 1841 c-3 -5 4 -11 16 -14 20 -6 20 -7 4 -31 -18 -28 -15 -31
14 -16 16 8 17 14 7 40 -11 29 -30 39 -41 21z"/>
<path d="M3045 1840 c3 -5 8 -10 11 -10 2 0 4 5 4 10 0 6 -5 10 -11 10 -5 0
-7 -4 -4 -10z"/>
<path d="M2340 1825 c-14 -16 -10 -18 14 -9 9 3 16 10 16 15 0 14 -16 11 -30
-6z"/>
<path d="M2550 1828 c0 -9 -6 -18 -12 -21 -16 -5 8 -37 28 -37 7 0 17 -6 21
-14 10 -16 73 -10 73 8 0 6 -9 20 -21 29 -19 17 -22 17 -38 3 -24 -21 -44 -20
-37 2 3 9 1 24 -4 32 -8 13 -10 13 -10 -2z m80 -52 c0 -3 -4 -8 -10 -11 -5 -3
-10 -1 -10 4 0 6 5 11 10 11 6 0 10 -2 10 -4z"/>
<path d="M630 1821 c0 -6 4 -13 10 -16 6 -3 7 1 4 9 -7 18 -14 21 -14 7z"/>
<path d="M2055 1820 c-3 -5 -1 -10 4 -10 6 0 11 5 11 10 0 6 -2 10 -4 10 -3 0
-8 -4 -11 -10z"/>
<path d="M2237 1800 c-6 -25 2 -32 19 -15 18 17 17 22 0 28 -8 3 -16 -2 -19
-13z"/>
<path d="M2478 1791 c11 -19 19 -26 24 -18 4 6 0 20 -9 29 -25 28 -34 21 -15
-11z"/>
<path d="M3497 1813 c-4 -3 -7 -11 -7 -17 0 -6 5 -5 12 2 6 6 9 14 7 17 -3 3
-9 2 -12 -2z"/>
<path d="M3550 1810 c0 -5 5 -10 11 -10 5 0 7 5 4 10 -3 6 -8 10 -11 10 -2 0
-4 -4 -4 -10z"/>
<path d="M540 1801 c0 -5 7 -14 15 -21 16 -14 18 -10 9 14 -6 17 -24 22 -24 7z"/>
<path d="M766 1783 c-6 -14 -5 -15 5 -6 7 7 10 15 7 18 -3 3 -9 -2 -12 -12z"/>
<path d="M1310 1782 c0 -9 6 -12 16 -8 9 3 21 6 26 6 19 0 -1 14 -22 15 -11 1
-20 -5 -20 -13z"/>
<path d="M2160 1790 c0 -5 -11 -10 -24 -10 -19 0 -23 -4 -19 -20 4 -16 9 -18
24 -9 11 5 27 9 37 8 30 -3 32 1 12 21 -22 22 -30 25 -30 10z"/>
<path d="M2335 1790 c-3 -5 1 -10 9 -10 9 0 16 5 16 10 0 6 -4 10 -9 10 -6 0
-13 -4 -16 -10z"/>
<path d="M2741 1784 c0 -11 3 -14 6 -6 3 7 2 16 -1 19 -3 4 -6 -2 -5 -13z"/>
<path d="M2788 1793 c7 -3 16 -2 19 1 4 3 -2 6 -13 5 -11 0 -14 -3 -6 -6z"/>
<path d="M3046 1791 c-4 -7 -5 -15 -2 -18 9 -9 19 4 14 18 -4 11 -6 11 -12 0z"/>
<path d="M2040 1764 c0 -8 5 -12 10 -9 6 3 10 10 10 16 0 5 -4 9 -10 9 -5 0
-10 -7 -10 -16z"/>
<path d="M2361 1749 c-8 -23 -7 -29 5 -29 8 0 17 7 21 16 3 8 12 13 19 10 9
-3 14 1 14 12 0 11 -9 17 -24 18 -19 1 -27 -5 -35 -27z"/>
<path d="M3110 1771 c0 -6 4 -13 10 -16 6 -3 7 1 4 9 -7 18 -14 21 -14 7z"/>
<path d="M890 1760 c0 -5 5 -10 11 -10 5 0 7 5 4 10 -3 6 -8 10 -11 10 -2 0
-4 -4 -4 -10z"/>
<path d="M1702 1761 c-36 -7 -41 -22 -11 -33 13 -5 19 -3 19 7 0 8 7 15 15 15
8 0 15 5 15 10 0 6 -1 9 -2 9 -2 -1 -18 -4 -36 -8z"/>
<path d="M1926 1762 c-3 -4 4 -9 15 -9 23 -2 25 3 4 10 -8 4 -16 3 -19 -1z"/>
<path d="M2795 1760 c-7 -12 2 -30 16 -30 12 0 12 27 0 35 -5 3 -12 1 -16 -5z"/>
<path d="M960 1738 c0 -16 5 -28 10 -28 13 0 13 20 0 40 -8 12 -10 9 -10 -12z"/>
<path d="M3420 1750 c0 -5 5 -10 11 -10 5 0 7 5 4 10 -3 6 -8 10 -11 10 -2 0
-4 -4 -4 -10z"/>
<path d="M1390 1741 c0 -5 5 -13 10 -16 8 -5 8 -11 0 -20 -7 -9 -6 -16 4 -24
11 -9 15 -6 18 19 4 23 0 34 -14 41 -12 6 -18 6 -18 0z"/>
<path d="M1510 1740 c-11 -7 -7 -10 18 -10 17 0 32 5 32 10 0 13 -30 13 -50 0z"/>
<path d="M2841 1724 c-12 -15 -21 -36 -21 -47 0 -17 6 -14 38 19 23 24 34 42
27 46 -16 12 -22 10 -44 -18z"/>
<path d="M2956 1734 c-9 -9 -14 -19 -11 -22 3 -3 13 2 22 11 9 9 14 19 11 22
-3 3 -13 -2 -22 -11z"/>
<path d="M1882 1723 c2 -9 9 -18 16 -21 18 -6 15 25 -4 32 -11 4 -14 1 -12
-11z"/>
<path d="M2174 1719 c-10 -11 -24 -17 -31 -15 -17 7 -16 -2 2 -20 13 -14 15
-14 15 0 0 10 9 16 24 16 13 0 29 6 35 14 19 23 -25 28 -45 5z"/>
<path d="M2270 1730 c0 -5 5 -10 10 -10 6 0 10 5 10 10 0 6 -4 10 -10 10 -5 0
-10 -4 -10 -10z"/>
<path d="M2453 1727 c-3 -5 1 -13 8 -18 21 -13 28 -11 26 9 -1 20 -24 25 -34
9z"/>
<path d="M3068 1733 c7 -3 16 -2 19 1 4 3 -2 6 -13 5 -11 0 -14 -3 -6 -6z"/>
<path d="M2069 1725 c-1 -3 -2 -9 -3 -14 -2 -15 -16 -26 -16 -13 0 7 -4 12
-10 12 -5 0 -7 -7 -4 -15 4 -8 12 -15 20 -15 18 0 54 31 48 42 -6 9 -33 11
-35 3z"/>
<path d="M1333 1705 c-6 -6 -7 -18 -3 -25 6 -9 11 -7 19 8 13 24 2 36 -16 17z"/>
<path d="M2727 1713 c-13 -3 -16 -10 -11 -25 5 -16 3 -20 -9 -15 -16 6 -37
-10 -37 -30 0 -16 70 24 70 40 0 7 7 4 14 -5 19 -26 36 -22 36 8 0 14 -4 23
-9 19 -5 -3 -12 -1 -16 5 -6 10 -9 11 -38 3z"/>
<path d="M1113 1694 c1 -24 27 -54 27 -31 0 7 -6 22 -14 33 -15 19 -15 19 -13
-2z"/>
<path d="M2557 1690 c-28 -23 -27 -45 4 -53 15 -4 19 0 19 24 0 23 5 29 21 29
11 0 17 5 14 10 -10 16 -30 12 -58 -10z"/>
<path d="M2635 1700 c-3 -5 -2 -10 4 -10 5 0 13 5 16 10 3 6 2 10 -4 10 -5 0
-13 -4 -16 -10z"/>
<path d="M1150 1690 c0 -5 5 -10 11 -10 5 0 7 5 4 10 -3 6 -8 10 -11 10 -2 0
-4 -4 -4 -10z"/>
<path d="M1201 1696 c2 -2 14 -9 26 -15 19 -10 22 -9 17 4 -4 8 -15 15 -27 15
-11 0 -18 -2 -16 -4z"/>
<path d="M1265 1690 c-4 -6 -3 -16 3 -22 13 -13 23 4 13 21 -7 10 -10 10 -16
1z"/>
<path d="M2331 1684 c-1 -25 24 -51 34 -34 3 5 1 10 -5 10 -6 0 -15 10 -20 23
-9 22 -9 22 -9 1z"/>
<path d="M2385 1690 c-3 -5 -2 -10 4 -10 5 0 13 5 16 10 3 6 2 10 -4 10 -5 0
-13 -4 -16 -10z"/>
<path d="M676 1674 c-8 -22 -8 -24 7 -21 16 3 27 19 21 29 -8 13 -21 9 -28 -8z"/>
<path d="M1480 1677 c0 -9 7 -14 15 -13 20 3 20 20 1 24 -9 2 -16 -3 -16 -11z"/>
<path d="M3050 1680 c0 -5 5 -10 10 -10 6 0 10 5 10 10 0 6 -4 10 -10 10 -5 0
-10 -4 -10 -10z"/>
<path d="M966 1664 c-4 -10 -1 -14 6 -12 15 5 23 28 10 28 -5 0 -13 -7 -16
-16z"/>
<path d="M3260 1664 c0 -14 3 -14 15 -4 8 7 15 14 15 16 0 2 -7 4 -15 4 -8 0
-15 -7 -15 -16z"/>
<path d="M2185 1660 c-3 -5 -1 -10 4 -10 6 0 11 5 11 10 0 6 -2 10 -4 10 -3 0
-8 -4 -11 -10z"/>
<path d="M2600 1660 c0 -4 9 -10 20 -13 11 -3 20 -2 20 3 0 4 -9 10 -20 13
-11 3 -20 2 -20 -3z"/>
<path d="M1010 1644 c0 -8 9 -14 20 -14 11 0 20 4 20 9 0 5 -9 11 -20 14 -13
3 -20 0 -20 -9z"/>
<path d="M1300 1650 c0 -5 5 -10 10 -10 6 0 10 5 10 10 0 6 -4 10 -10 10 -5 0
-10 -4 -10 -10z"/>
<path d="M2982 1638 c2 -5 8 -9 13 -9 5 0 11 4 13 9 1 5 -4 9 -13 9 -9 0 -14
-4 -13 -9z"/>
<path d="M625 1631 c-3 -5 -1 -12 5 -16 5 -3 10 1 10 9 0 18 -6 21 -15 7z"/>
<path d="M2740 1620 c12 -22 30 -18 30 6 0 8 -9 14 -20 14 -18 0 -19 -3 -10
-20z"/>
<path d="M3470 1625 c-11 -13 -10 -14 4 -9 9 3 16 10 16 15 0 13 -6 11 -20 -6z"/>
<path d="M1200 1620 c0 -5 5 -10 11 -10 5 0 7 5 4 10 -3 6 -8 10 -11 10 -2 0
-4 -4 -4 -10z"/>
<path d="M1830 1621 c0 -5 6 -11 14 -14 9 -4 12 -14 9 -26 -6 -24 12 -29 21
-5 13 35 7 54 -19 54 -14 0 -25 -4 -25 -9z"/>
<path d="M2830 1620 c0 -5 5 -10 11 -10 5 0 7 5 4 10 -3 6 -8 10 -11 10 -2 0
-4 -4 -4 -10z"/>
<path d="M2930 1620 c0 -5 5 -10 10 -10 6 0 10 5 10 10 0 6 -4 10 -10 10 -5 0
-10 -4 -10 -10z"/>
<path d="M2485 1610 c-3 -5 -1 -10 4 -10 6 0 11 5 11 10 0 6 -2 10 -4 10 -3 0
-8 -4 -11 -10z"/>
<path d="M2970 1604 c0 -8 5 -12 10 -9 6 4 8 11 5 16 -9 14 -15 11 -15 -7z"/>
<path d="M916 1601 c-4 -7 -5 -15 -2 -18 9 -9 19 4 14 18 -4 11 -6 11 -12 0z"/>
<path d="M1176 1603 c-9 -9 -7 -33 3 -33 12 0 22 28 12 34 -5 3 -11 3 -15 -1z"/>
<path d="M2346 1594 c-4 -10 -1 -21 6 -25 16 -10 25 18 10 33 -6 6 -12 3 -16
-8z"/>
<path d="M3182 1598 c-14 -14 -16 -28 -3 -28 9 0 24 30 18 36 -2 2 -9 -2 -15
-8z"/>
<path d="M1740 1585 c-8 -9 -8 -15 -2 -15 12 0 26 19 19 26 -2 2 -10 -2 -17
-11z"/>
<path d="M1922 1588 c-19 -19 -14 -29 13 -24 16 3 28 -1 34 -12 8 -13 12 -14
25 -3 9 7 16 22 16 33 0 16 -3 17 -22 7 -16 -9 -23 -9 -26 0 -5 14 -25 14 -40
-1z"/>
<path d="M2795 1579 c-4 -12 -2 -26 3 -31 13 -13 65 -1 57 13 -5 7 -11 7 -19
0 -16 -13 -37 5 -29 25 3 8 3 14 0 14 -3 0 -9 -9 -12 -21z"/>
<path d="M3040 1584 c0 -8 7 -11 18 -8 12 4 10 0 -5 -12 -23 -17 -31 -44 -13
-44 6 0 10 5 10 11 0 6 9 8 22 3 20 -6 21 -5 10 9 -12 13 -10 18 7 29 29 18
26 23 -14 24 -22 0 -35 -4 -35 -12z"/>
<path d="M1642 1579 c2 -7 14 -13 26 -14 29 -2 22 19 -7 23 -15 3 -22 -1 -19
-9z"/>
<path d="M2994 1582 c-14 -10 -25 -40 -16 -46 5 -3 13 8 19 25 6 16 11 29 10
29 -1 0 -7 -4 -13 -8z"/>
<path d="M2580 1573 c-8 -3 -19 -12 -23 -20 -5 -7 -12 -11 -17 -8 -5 3 -11 1
-15 -5 -4 -6 -11 -7 -17 -4 -6 4 -9 1 -6 -7 3 -8 10 -14 16 -13 7 1 26 2 42 3
19 0 30 6 30 16 0 9 6 12 16 8 14 -5 15 -3 5 15 -7 12 -13 22 -14 21 -1 0 -9
-3 -17 -6z"/>
<path d="M1116 1548 c-3 -13 -1 -24 4 -26 6 -2 10 -11 10 -20 0 -13 3 -12 18
4 17 17 17 21 4 42 -8 12 -18 22 -22 22 -4 0 -10 -10 -14 -22z"/>
<path d="M1328 1563 c-32 -5 -34 -9 -14 -29 19 -18 27 -18 20 1 -4 9 0 15 10
15 9 0 16 5 16 10 0 6 -1 9 -2 9 -2 -1 -15 -4 -30 -6z"/>
<path d="M2139 1552 c-1 -9 -1 -25 0 -34 1 -10 -3 -18 -9 -18 -6 0 -8 -5 -4
-11 5 -8 10 -6 16 5 5 9 19 16 31 16 13 0 28 5 35 12 9 9 15 9 24 0 17 -17 24
-15 24 8 0 23 -5 24 -40 10 -19 -7 -28 -6 -33 4 -14 22 -43 27 -44 8z"/>
<path d="M2450 1562 c0 -4 9 -8 20 -8 11 0 20 4 20 8 0 4 -9 8 -20 8 -11 0
-20 -4 -20 -8z"/>
<path d="M3426 1553 c-6 -14 -5 -15 5 -6 7 7 10 15 7 18 -3 3 -9 -2 -12 -12z"/>
<path d="M1010 1551 c0 -5 -8 -12 -17 -14 -14 -4 -13 -5 4 -6 12 0 24 -5 28
-11 10 -16 33 0 28 21 -5 19 -43 28 -43 10z"/>
<path d="M1500 1552 c0 -5 9 -12 21 -15 13 -3 19 -1 16 6 -5 15 -37 22 -37 9z"/>
<path d="M2686 1544 c-4 -9 -4 -19 -2 -21 8 -8 26 8 26 23 0 19 -16 18 -24 -2z"/>
<path d="M1227 1525 c-3 -21 -2 -23 10 -14 10 9 18 7 35 -7 21 -19 21 -19 9 3
-6 13 -20 27 -30 33 -16 8 -20 5 -24 -15z"/>
<path d="M1750 1515 c0 -8 2 -15 4 -15 2 0 6 7 10 15 3 8 1 15 -4 15 -6 0 -10
-7 -10 -15z"/>
<path d="M1410 1510 c0 -5 5 -10 11 -10 5 0 7 5 4 10 -3 6 -8 10 -11 10 -2 0
-4 -4 -4 -10z"/>
<path d="M1634 1509 c-3 -5 -10 -7 -15 -4 -5 4 -9 1 -9 -5 0 -6 7 -13 15 -16
15 -6 21 -34 7 -34 -4 0 -7 -16 -8 -34 -1 -30 2 -34 17 -25 10 5 19 21 21 36
2 18 8 27 18 25 8 -2 20 5 27 14 18 24 16 33 -4 30 -10 -2 -21 2 -25 7 -9 14
-36 18 -44 6z"/>
<path d="M2320 1500 c0 -11 7 -20 15 -20 8 0 15 9 15 20 0 11 -7 20 -15 20 -8
0 -15 -9 -15 -20z"/>
<path d="M2861 1506 c-8 -9 -11 -19 -7 -23 9 -9 29 13 24 27 -2 8 -8 7 -17 -4z"/>
<path d="M3290 1510 c-13 -8 -13 -10 2 -10 9 0 20 5 23 10 8 13 -5 13 -25 0z"/>
<path d="M2713 1504 c-15 -7 -5 -34 12 -34 11 0 25 20 25 36 0 5 -21 4 -37 -2z"/>
<path d="M3235 1499 c-4 -6 -5 -12 -2 -15 2 -3 7 2 10 11 7 17 1 20 -8 4z"/>
<path d="M1353 1482 c1 -14 5 -18 11 -12 7 7 6 14 -1 21 -9 9 -12 7 -10 -9z"/>
<path d="M2075 1491 c3 -6 -2 -14 -12 -20 -17 -9 -17 -10 1 -30 10 -11 24 -17
32 -14 22 8 17 23 -8 23 -17 0 -19 3 -10 12 15 15 16 38 1 38 -5 0 -8 -4 -4
-9z"/>
<path d="M2398 1483 c-7 -8 -24 -22 -38 -32 -14 -11 -22 -22 -18 -26 3 -4 21
7 39 24 17 17 40 31 50 31 11 0 19 4 19 8 0 13 -38 9 -52 -5z"/>
<path d="M1545 1480 c-3 -5 3 -10 14 -10 12 0 21 5 21 10 0 6 -6 10 -14 10 -8
0 -18 -4 -21 -10z"/>
<path d="M1917 1484 c-4 -4 -7 -14 -7 -23 0 -11 3 -12 11 -4 6 6 10 16 7 23
-2 6 -7 8 -11 4z"/>
<path d="M2243 1471 c-8 -13 -9 -22 -3 -26 11 -7 24 18 18 35 -2 6 -9 1 -15
-9z"/>
<path d="M2916 1475 c-11 -30 -6 -40 11 -22 12 12 14 20 6 28 -7 7 -12 6 -17
-6z"/>
<path d="M1276 1465 c4 -8 8 -15 10 -15 2 0 4 7 4 15 0 8 -4 15 -10 15 -5 0
-7 -7 -4 -15z"/>
<path d="M956 1454 c-4 -9 1 -14 14 -14 23 0 27 15 6 23 -8 3 -17 -1 -20 -9z"/>
<path d="M1966 1461 c-4 -5 3 -15 15 -21 18 -10 20 -9 17 6 -4 20 -23 30 -32
15z"/>
<path d="M2155 1461 c-3 -5 -1 -12 5 -16 5 -3 10 1 10 9 0 18 -6 21 -15 7z"/>
<path d="M2620 1459 c0 -5 5 -7 10 -4 6 3 10 8 10 11 0 2 -4 4 -10 4 -5 0 -10
-5 -10 -11z"/>
<path d="M1806 1446 c7 -17 44 -22 44 -6 0 6 -4 10 -9 10 -5 0 -17 3 -25 6
-12 5 -15 2 -10 -10z"/>
<path d="M2287 1449 c7 -7 15 -10 18 -7 3 3 -2 9 -12 12 -14 6 -15 5 -6 -5z"/>
<path d="M912 1438 c6 -18 28 -21 28 -4 0 9 -7 16 -16 16 -9 0 -14 -5 -12 -12z"/>
<path d="M3120 1434 c0 -8 5 -12 10 -9 6 4 8 11 5 16 -9 14 -15 11 -15 -7z"/>
<path d="M1200 1430 c-8 -5 -24 -11 -35 -15 -19 -6 -19 -7 -3 -19 10 -7 15
-16 12 -19 -3 -3 -3 -11 1 -17 5 -8 14 -2 26 17 10 15 19 24 19 18 0 -5 4 -4
9 4 9 14 4 41 -8 40 -3 0 -13 -4 -21 -9z"/>
<path d="M1457 1419 c-7 -27 -1 -37 14 -22 7 7 8 17 2 28 -9 15 -11 15 -16 -6z"/>
<path d="M3055 1430 c-3 -5 3 -10 14 -10 12 0 21 5 21 10 0 6 -6 10 -14 10 -8
0 -18 -4 -21 -10z"/>
<path d="M3228 1418 c6 -6 18 -8 28 -6 14 3 12 5 -9 10 -19 3 -25 2 -19 -4z"/>
<path d="M730 1413 c0 -5 8 -17 17 -28 14 -18 15 -18 9 -2 -3 10 -6 23 -6 28
0 5 -4 9 -10 9 -5 0 -10 -3 -10 -7z"/>
<path d="M1520 1410 c0 -5 7 -10 15 -10 8 0 15 5 15 10 0 6 -7 10 -15 10 -8 0
-15 -4 -15 -10z"/>
<path d="M2539 1418 c-1 -2 -3 -20 -4 -42 -2 -28 0 -34 7 -22 5 9 13 14 17 11
5 -2 14 2 21 10 7 8 20 15 29 15 14 0 14 2 1 10 -8 5 -23 7 -32 4 -10 -3 -18
-1 -18 5 0 9 -17 16 -21 9z"/>
<path d="M1590 1400 c0 -5 5 -10 11 -10 5 0 7 5 4 10 -3 6 -8 10 -11 10 -2 0
-4 -4 -4 -10z"/>
<path d="M1744 1399 c-3 -6 -1 -16 5 -22 8 -8 11 -5 11 11 0 24 -5 28 -16 11z"/>
<path d="M2065 1394 c-22 -7 -42 -14 -44 -14 -3 0 0 -5 7 -12 8 -8 15 -8 27 2
10 8 15 9 15 1 0 -6 5 -11 11 -11 5 0 8 4 4 9 -10 17 13 21 29 5 19 -18 21 -6
3 17 -11 15 -17 15 -52 3z"/>
<path d="M2420 1396 c0 -8 4 -17 8 -20 13 -8 35 11 28 23 -10 16 -36 14 -36
-3z"/>
<path d="M1900 1391 c0 -5 7 -11 15 -15 9 -3 15 0 15 9 0 8 -7 15 -15 15 -8 0
-15 -4 -15 -9z"/>
<path d="M2335 1360 c0 -39 8 -50 20 -30 8 12 -4 70 -13 70 -4 0 -7 -18 -7
-40z"/>
<path d="M3000 1392 c0 -12 19 -26 26 -19 2 2 -2 10 -11 17 -9 8 -15 8 -15 2z"/>
<path d="M3120 1384 c0 -8 5 -12 10 -9 6 4 8 11 5 16 -9 14 -15 11 -15 -7z"/>
<path d="M2191 1377 c-8 -10 -7 -14 2 -14 8 0 14 6 14 14 0 7 -1 13 -2 13 -2
0 -8 -6 -14 -13z"/>
<path d="M2490 1381 c0 -5 -3 -16 -6 -25 -4 -10 -1 -16 9 -16 20 0 29 14 21
34 -7 17 -24 22 -24 7z"/>
<path d="M2716 1381 c-4 -7 -5 -15 -2 -18 9 -9 19 4 14 18 -4 11 -6 11 -12 0z"/>
<path d="M2780 1380 c0 -5 7 -10 15 -10 8 0 15 5 15 10 0 6 -7 10 -15 10 -8 0
-15 -4 -15 -10z"/>
<path d="M1861 1364 c0 -11 3 -14 6 -6 3 7 2 16 -1 19 -3 4 -6 -2 -5 -13z"/>
<path d="M2376 1371 c-4 -7 -5 -15 -2 -18 9 -9 19 4 14 18 -4 11 -6 11 -12 0z"/>
<path d="M3220 1365 c0 -9 6 -12 15 -9 8 4 12 10 9 15 -8 14 -24 10 -24 -6z"/>
<path d="M960 1337 c0 -15 4 -27 9 -27 17 0 19 15 5 35 -13 18 -14 18 -14 -8z"/>
<path d="M1630 1344 c0 -14 3 -14 15 -4 8 7 15 14 15 16 0 2 -7 4 -15 4 -8 0
-15 -7 -15 -16z"/>
<path d="M1972 1340 c0 -14 2 -19 5 -12 2 6 2 18 0 25 -3 6 -5 1 -5 -13z"/>
<path d="M1736 1334 c-9 -22 3 -37 18 -25 7 6 16 8 19 4 4 -3 7 -1 7 5 0 6 -9
16 -19 21 -15 8 -20 7 -25 -5z"/>
<path d="M2705 1331 c-3 -5 -1 -12 5 -16 5 -3 10 1 10 9 0 18 -6 21 -15 7z"/>
<path d="M2952 1320 c-25 -24 -29 -42 -7 -34 8 4 12 11 8 18 -4 6 1 5 10 -3 9
-7 17 -12 18 -10 11 57 6 61 -29 29z"/>
<path d="M1565 1320 c-3 -5 -1 -10 4 -10 6 0 11 5 11 10 0 6 -2 10 -4 10 -3 0
-8 -4 -11 -10z"/>
<path d="M2577 1323 c-13 -12 -7 -18 17 -18 18 0 22 3 14 13 -12 13 -21 15
-31 5z"/>
<path d="M2126 1311 c-4 -7 -5 -15 -2 -18 9 -9 19 4 14 18 -4 11 -6 11 -12 0z"/>
<path d="M1925 1300 c4 -6 11 -8 16 -5 14 9 11 15 -7 15 -8 0 -12 -5 -9 -10z"/>
<path d="M2217 1303 c-9 -9 -9 -43 1 -43 4 0 12 11 19 25 9 19 8 25 -1 25 -7
0 -16 -3 -19 -7z"/>
<path d="M1606 1286 c3 -8 -3 -19 -15 -25 -11 -6 -21 -23 -23 -38 -2 -16 -9
-29 -15 -29 -7 -1 -17 -2 -23 -3 -19 -2 -10 -31 10 -31 11 0 20 5 20 11 0 6 7
9 15 5 8 -3 21 4 29 16 12 17 18 19 30 9 10 -8 16 -9 21 -1 9 14 42 13 48 -2
2 -7 -3 -18 -12 -25 -14 -11 -14 -12 -1 -12 8 0 24 6 34 14 20 15 20 15 0 30
-10 8 -29 15 -40 15 -12 0 -24 7 -28 15 -3 8 -12 15 -21 15 -8 0 -15 9 -15 19
0 11 -4 23 -10 26 -5 3 -7 0 -4 -9z"/>
<path d="M1675 1280 c10 -11 22 -17 28 -13 6 4 3 12 -8 20 -28 20 -41 16 -20
-7z"/>
<path d="M1530 1271 c-16 -31 -12 -36 10 -11 23 26 24 30 10 30 -5 0 -14 -9
-20 -19z"/>
<path d="M1630 1280 c0 -5 5 -10 11 -10 5 0 7 5 4 10 -3 6 -8 10 -11 10 -2 0
-4 -4 -4 -10z"/>
<path d="M2350 1280 c0 -5 5 -10 11 -10 5 0 7 5 4 10 -3 6 -8 10 -11 10 -2 0
-4 -4 -4 -10z"/>
<path d="M916 1265 c4 -8 8 -15 10 -15 2 0 4 7 4 15 0 8 -4 15 -10 15 -5 0 -7
-7 -4 -15z"/>
<path d="M1776 1271 c-11 -4 -21 -17 -22 -29 -4 -20 -3 -20 23 4 29 27 28 35
-1 25z"/>
<path d="M1855 1270 c-3 -5 1 -10 9 -10 9 0 16 5 16 10 0 6 -4 10 -9 10 -6 0
-13 -4 -16 -10z"/>
<path d="M2380 1265 c-10 -12 -10 -15 4 -15 9 0 16 7 16 15 0 8 -2 15 -4 15
-2 0 -9 -7 -16 -15z"/>
<path d="M2455 1270 c3 -5 8 -10 11 -10 2 0 4 5 4 10 0 6 -5 10 -11 10 -5 0
-7 -4 -4 -10z"/>
<path d="M2715 1270 c-3 -5 -1 -10 4 -10 6 0 11 5 11 10 0 6 -2 10 -4 10 -3 0
-8 -4 -11 -10z"/>
<path d="M2853 1273 c-18 -7 -16 -23 2 -23 8 0 15 7 15 15 0 8 -1 15 -2 14 -2
0 -9 -3 -15 -6z"/>
<path d="M3215 1250 c-22 -23 -25 -30 -12 -30 9 0 23 14 32 30 9 17 14 30 12
30 -2 0 -16 -13 -32 -30z"/>
<path d="M2291 1254 c0 -11 3 -14 6 -6 3 7 2 16 -1 19 -3 4 -6 -2 -5 -13z"/>
<path d="M2638 1256 c-10 -8 -14 -17 -8 -26 10 -16 40 -6 40 14 0 21 -13 26
-32 12z"/>
<path d="M2250 1253 c-22 -9 -31 -26 -17 -35 19 -12 24 -9 29 17 3 14 5 25 4
24 0 0 -8 -3 -16 -6z"/>
<path d="M1040 1232 c6 -13 14 -21 18 -18 3 4 -2 14 -12 24 -18 16 -18 16 -6
-6z"/>
<path d="M2117 1244 c-10 -10 -9 -44 2 -44 13 0 23 32 13 42 -5 5 -11 5 -15 2z"/>
<path d="M1264 1224 c3 -9 6 -18 6 -20 0 -2 7 -4 15 -4 19 0 19 7 1 26 -19 19
-30 18 -22 -2z"/>
<path d="M3013 1224 c-3 -8 -1 -20 6 -27 8 -8 11 -4 11 16 0 30 -7 35 -17 11z"/>
<path d="M1510 1222 c0 -6 -8 -13 -17 -15 -16 -4 -16 -5 -1 -6 18 -1 34 16 24
26 -3 4 -6 1 -6 -5z"/>
<path d="M2195 1220 c-3 -5 -1 -10 4 -10 6 0 11 5 11 10 0 6 -2 10 -4 10 -3 0
-8 -4 -11 -10z"/>
<path d="M2456 1204 c-6 -15 28 -47 38 -37 4 5 14 0 21 -11 8 -10 18 -15 24
-11 15 9 14 40 -1 53 -20 15 -77 20 -82 6z"/>
<path d="M812 1189 c2 -7 10 -15 17 -17 8 -3 12 1 9 9 -2 7 -10 15 -17 17 -8
3 -12 -1 -9 -9z"/>
<path d="M1175 1190 c-8 -13 -1 -24 14 -19 6 3 7 10 2 18 -6 10 -10 10 -16 1z"/>
<path d="M1829 1198 c-9 -27 -3 -46 13 -45 22 2 26 47 3 47 -8 0 -15 -1 -16
-2z"/>
<path d="M2652 1188 c-17 -17 -15 -24 8 -24 22 0 24 4 12 23 -6 10 -11 10 -20
1z"/>
<path d="M2730 1185 c0 -9 5 -15 11 -13 6 2 11 8 11 13 0 5 -5 11 -11 13 -6 2
-11 -4 -11 -13z"/>
<path d="M3235 1190 c-3 -5 -1 -10 4 -10 6 0 11 5 11 10 0 6 -2 10 -4 10 -3 0
-8 -4 -11 -10z"/>
<path d="M777 1184 c-8 -8 1 -24 14 -24 5 0 9 7 9 15 0 15 -12 20 -23 9z"/>
<path d="M1430 1180 c0 -5 5 -10 11 -10 5 0 7 5 4 10 -3 6 -8 10 -11 10 -2 0
-4 -4 -4 -10z"/>
<path d="M2086 1177 c-16 -12 -16 -13 3 -13 12 0 21 6 21 13 0 7 -1 13 -3 13
-2 0 -11 -6 -21 -13z"/>
<path d="M2220 1150 c0 -11 2 -20 4 -20 2 0 6 9 9 20 3 11 1 20 -4 20 -5 0 -9
-9 -9 -20z"/>
<path d="M890 1153 c1 -18 18 -35 24 -24 4 6 4 16 1 21 -7 12 -25 13 -25 3z"/>
<path d="M959 1142 c-7 -9 -10 -14 -5 -10 5 4 16 -1 25 -10 9 -10 13 -13 9 -8
-3 4 -4 14 -2 21 8 21 -13 26 -27 7z"/>
<path d="M862 1141 c4 -13 18 -16 19 -4 0 4 -5 9 -11 12 -7 2 -11 -2 -8 -8z"/>
<path d="M1175 1140 c-6 -10 16 -40 30 -40 4 0 5 10 3 22 -3 24 -23 35 -33 18z"/>
<path d="M2000 1137 c0 -8 7 -18 16 -21 11 -4 14 -1 12 11 -4 21 -28 30 -28
10z"/>
<path d="M2368 1143 c7 -3 16 -2 19 1 4 3 -2 6 -13 5 -11 0 -14 -3 -6 -6z"/>
<path d="M2906 1137 c7 -20 50 -41 65 -31 13 8 -19 37 -35 31 -7 -3 -19 0 -25
6 -9 9 -11 8 -5 -6z"/>
<path d="M1056 1124 c-9 -24 -8 -26 14 -14 11 6 18 15 15 21 -9 14 -22 11 -29
-7z"/>
<path d="M1436 1126 c10 -8 21 -12 24 -10 5 6 -21 24 -34 24 -6 0 -1 -6 10
-14z"/>
<path d="M2155 1118 c2 -10 0 -18 -4 -18 -4 0 -22 -13 -40 -29 -26 -24 -29
-30 -16 -35 21 -8 33 0 46 27 20 44 36 67 42 60 4 -3 7 -1 7 5 0 6 -9 10 -19
9 -13 -1 -18 -7 -16 -19z"/>
<path d="M2630 1125 c0 -8 4 -15 8 -15 5 0 9 7 9 15 0 8 -4 15 -9 15 -4 0 -8
-7 -8 -15z"/>
<path d="M1673 1123 c-7 -2 -13 -12 -13 -22 0 -9 -6 -23 -12 -30 -11 -10 -7
-12 16 -9 24 3 29 8 31 36 3 32 1 35 -22 25z"/>
<path d="M1890 1114 c0 -8 5 -12 10 -9 6 4 8 11 5 16 -9 14 -15 11 -15 -7z"/>
<path d="M2116 1115 c-3 -8 -1 -15 4 -15 6 0 10 7 10 15 0 8 -2 15 -4 15 -2 0
-6 -7 -10 -15z"/>
<path d="M2565 1120 c-16 -7 -17 -9 -3 -9 9 -1 20 4 23 9 7 11 7 11 -20 0z"/>
<path d="M1270 1085 c29 -31 31 -31 17 0 -7 14 -18 25 -26 25 -10 0 -7 -8 9
-25z"/>
<path d="M1504 1092 c2 -10 18 -21 37 -27 19 -5 48 -17 66 -26 24 -13 33 -14
36 -5 3 7 -4 18 -15 25 -15 9 -17 15 -8 26 9 11 4 13 -32 10 -23 -1 -52 1 -64
5 -18 7 -22 5 -20 -8z"/>
<path d="M2725 1099 c-4 -6 -5 -13 -2 -16 7 -7 27 6 27 18 0 12 -17 12 -25 -2z"/>
<path d="M1370 1091 c0 -6 4 -13 10 -16 6 -3 7 1 4 9 -7 18 -14 21 -14 7z"/>
<path d="M1406 1087 c3 -10 9 -15 12 -12 3 3 0 11 -7 18 -10 9 -11 8 -5 -6z"/>
<path d="M2364 1070 c0 -11 8 -23 18 -26 10 -3 18 -10 18 -15 0 -5 8 -9 18 -9
13 0 14 2 3 9 -7 5 -11 13 -7 19 7 12 -20 42 -38 42 -6 0 -12 -9 -12 -20z"/>
<path d="M1720 1071 c0 -14 18 -23 31 -15 8 4 7 9 -2 15 -18 11 -29 11 -29 0z"/>
<path d="M2463 1073 c-18 -6 -16 -23 1 -23 17 0 30 16 19 23 -5 2 -14 2 -20 0z"/>
<path d="M1920 1060 c0 -5 5 -10 10 -10 6 0 10 5 10 10 0 6 -4 10 -10 10 -5 0
-10 -4 -10 -10z"/>
<path d="M1040 1046 c0 -7 6 -19 14 -25 19 -16 32 5 16 24 -16 19 -30 19 -30
1z"/>
<path d="M1191 1044 c-1 -13 10 -29 24 -38 21 -14 24 -14 19 -1 -4 8 -10 15
-15 15 -5 0 -14 10 -19 23 -9 22 -9 22 -9 1z"/>
<path d="M1300 1040 c0 -5 5 -10 10 -10 6 0 10 5 10 10 0 6 -4 10 -10 10 -5 0
-10 -4 -10 -10z"/>
<path d="M1517 1043 c-2 -4 -1 -17 3 -27 6 -19 7 -19 14 -1 7 19 -8 44 -17 28z"/>
<path d="M1270 1031 c0 -5 5 -13 10 -16 6 -3 10 -2 10 4 0 5 -4 13 -10 16 -5
3 -10 2 -10 -4z"/>
<path d="M1971 1028 c-1 -10 -12 -20 -26 -24 -26 -6 -34 -23 -12 -25 6 0 24
-2 39 -4 33 -4 46 11 25 28 -8 7 -17 19 -20 27 -4 12 -6 11 -6 -2z"/>
<path d="M2593 1033 c-15 -5 -17 -23 -4 -23 5 0 11 7 15 15 3 8 4 15 3 14 -1
0 -8 -3 -14 -6z"/>
<path d="M2977 1023 c7 -17 19 -17 26 0 3 7 -3 13 -13 13 -10 0 -16 -6 -13
-13z"/>
<path d="M1790 1023 c1 -20 16 -31 30 -22 13 8 13 10 0 19 -18 12 -30 13 -30
3z"/>
<path d="M1395 1000 c-10 -11 -16 -23 -13 -26 7 -6 38 24 38 37 0 13 -5 11
-25 -11z"/>
<path d="M1450 996 c0 -9 8 -12 25 -8 28 5 24 22 -6 22 -10 0 -19 -6 -19 -14z"/>
<path d="M2238 990 c12 -10 22 -28 22 -39 0 -12 4 -21 8 -21 13 0 8 48 -5 61
-7 7 -21 14 -30 15 -15 2 -14 -1 5 -16z"/>
<path d="M1576 985 c7 -17 20 -20 28 -6 3 5 -1 12 -10 15 -22 9 -24 8 -18 -9z"/>
<path d="M2045 980 c-8 -13 -1 -24 14 -19 6 3 7 10 2 18 -6 10 -10 10 -16 1z"/>
<path d="M1178 973 c7 -3 16 -2 19 1 4 3 -2 6 -13 5 -11 0 -14 -3 -6 -6z"/>
<path d="M2939 953 c-13 -16 -12 -17 4 -4 16 13 21 21 13 21 -2 0 -10 -8 -17
-17z"/>
<path d="M1130 939 c0 -5 5 -7 10 -4 6 3 10 8 10 11 0 2 -4 4 -10 4 -5 0 -10
-5 -10 -11z"/>
<path d="M1725 930 c3 -5 8 -10 11 -10 2 0 4 5 4 10 0 6 -5 10 -11 10 -5 0 -7
-4 -4 -10z"/>
<path d="M1597 917 c-3 -8 1 -14 8 -14 7 0 11 6 8 14 -3 7 -6 13 -8 13 -2 0
-5 -6 -8 -13z"/>
<path d="M1796 922 c-3 -6 -1 -14 5 -17 14 -9 20 -2 10 14 -6 8 -11 9 -15 3z"/>
<path d="M1890 921 c0 -5 5 -13 10 -16 6 -3 10 -2 10 4 0 5 -4 13 -10 16 -5 3
-10 2 -10 -4z"/>
<path d="M2170 920 c0 -5 5 -10 11 -10 5 0 7 5 4 10 -3 6 -8 10 -11 10 -2 0
-4 -4 -4 -10z"/>
<path d="M1420 909 c0 -5 5 -7 10 -4 6 3 10 8 10 11 0 2 -4 4 -10 4 -5 0 -10
-5 -10 -11z"/>
<path d="M1240 900 c0 -5 5 -10 11 -10 5 0 7 5 4 10 -3 6 -8 10 -11 10 -2 0
-4 -4 -4 -10z"/>
<path d="M1672 899 c7 -5 20 -9 29 -9 9 0 19 -7 23 -15 3 -8 10 -15 16 -15 6
0 3 11 -5 24 -12 18 -25 24 -46 24 -20 -1 -26 -4 -17 -9z"/>
<path d="M1185 890 c-3 -5 -1 -10 4 -10 6 0 11 5 11 10 0 6 -2 10 -4 10 -3 0
-8 -4 -11 -10z"/>
<path d="M2230 885 c0 -9 5 -15 11 -13 6 2 11 8 11 13 0 5 -5 11 -11 13 -6 2
-11 -4 -11 -13z"/>
<path d="M1827 883 c-10 -9 -9 -23 1 -23 5 0 9 7 9 15 0 17 -1 18 -10 8z"/>
<path d="M1260 860 c0 -5 5 -10 10 -10 6 0 10 5 10 10 0 6 -4 10 -10 10 -5 0
-10 -4 -10 -10z"/>
<path d="M1400 858 c0 -5 9 -8 19 -8 11 0 22 3 24 8 3 4 -6 7 -19 7 -13 0 -24
-3 -24 -7z"/>
<path d="M1590 850 c0 -5 5 -10 10 -10 6 0 10 5 10 10 0 6 -4 10 -10 10 -5 0
-10 -4 -10 -10z"/>
<path d="M1930 850 c0 -5 -7 -10 -15 -10 -8 0 -15 -4 -15 -10 0 -13 11 -12 33
4 19 15 22 26 7 26 -5 0 -10 -4 -10 -10z"/>
<path d="M2124 800 c0 -11 4 -20 8 -20 4 0 8 9 8 20 0 11 -4 20 -8 20 -4 0 -8
-9 -8 -20z"/>
<path d="M1080 800 c0 -5 7 -7 15 -4 8 4 15 8 15 10 0 2 -7 4 -15 4 -8 0 -15
-4 -15 -10z"/>
<path d="M2364 775 c1 -18 4 -20 19 -11 22 14 22 22 -2 29 -14 3 -18 -1 -17
-18z"/>
<path d="M1913 778 c2 -7 10 -13 17 -13 7 0 15 6 18 13 2 7 -5 12 -18 12 -13
0 -20 -5 -17 -12z"/>
<path d="M1656 761 c-4 -7 -5 -15 -2 -18 9 -9 19 4 14 18 -4 11 -6 11 -12 0z"/>
<path d="M2610 740 c0 -5 5 -10 10 -10 6 0 10 5 10 10 0 6 -4 10 -10 10 -5 0
-10 -4 -10 -10z"/>
<path d="M1584 719 c-8 -13 17 -34 44 -36 23 -3 27 4 14 23 -10 15 -51 24 -58
13z"/>
<path d="M1680 703 c0 -12 8 -23 20 -26 11 -3 20 -3 20 -1 0 3 -9 14 -20 26
-20 22 -20 22 -20 1z"/>
<path d="M1790 702 c0 -5 14 -9 31 -10 17 0 36 -5 43 -11 18 -15 56 -9 56 9 0
12 -13 16 -65 18 -36 1 -65 -2 -65 -6z"/>
<path d="M2810 689 c0 -5 5 -7 10 -4 6 3 10 8 10 11 0 2 -4 4 -10 4 -5 0 -10
-5 -10 -11z"/>
<path d="M1458 683 c7 -3 16 -2 19 1 4 3 -2 6 -13 5 -11 0 -14 -3 -6 -6z"/>
<path d="M2152 670 c-6 -15 -6 -32 0 -42 11 -22 24 -23 32 -3 3 8 1 15 -5 15
-6 0 -9 6 -6 13 3 8 1 20 -3 28 -7 10 -11 8 -18 -11z"/>
<path d="M1585 661 c3 -5 -3 -12 -12 -14 -15 -4 -15 -5 -2 -6 9 0 22 6 29 14
10 12 9 15 -4 15 -10 0 -15 -4 -11 -9z"/>
<path d="M1950 660 c-8 -5 -10 -10 -5 -10 6 0 17 5 25 10 8 5 11 10 5 10 -5 0
-17 -5 -25 -10z"/>
<path d="M1470 636 c0 -8 4 -17 9 -21 6 -3 9 4 8 15 -1 23 -17 28 -17 6z"/>
<path d="M1705 640 c3 -5 8 -10 11 -10 2 0 4 5 4 10 0 6 -5 10 -11 10 -5 0 -7
-4 -4 -10z"/>
<path d="M2046 631 c-12 -5 -15 -10 -9 -14 6 -4 16 0 23 8 14 17 13 17 -14 6z"/>
<path d="M1620 615 c0 -8 4 -15 10 -15 5 0 7 7 4 15 -4 8 -8 15 -10 15 -2 0
-4 -7 -4 -15z"/>
<path d="M1775 610 c3 -5 10 -10 16 -10 5 0 9 5 9 10 0 6 -7 10 -16 10 -8 0
-12 -4 -9 -10z"/>
<path d="M1460 590 c0 -5 7 -10 16 -10 8 0 12 5 9 10 -3 6 -10 10 -16 10 -5 0
-9 -4 -9 -10z"/>
<path d="M2238 583 c-4 -15 -16 -24 -42 -28 -26 -5 -36 -12 -36 -26 0 -13 7
-19 23 -19 17 0 19 2 7 10 -12 8 -12 10 4 16 10 4 21 2 26 -5 4 -7 11 -11 16
-9 5 1 10 -7 12 -19 2 -13 7 -23 12 -23 12 0 20 28 9 32 -5 2 -13 23 -17 48
-6 35 -9 40 -14 23z"/>
<path d="M2405 590 c3 -5 11 -10 16 -10 6 0 7 5 4 10 -3 6 -11 10 -16 10 -6 0
-7 -4 -4 -10z"/>
<path d="M1357 540 c3 -11 9 -20 14 -20 11 0 11 3 3 24 -9 23 -23 20 -17 -4z"/>
<path d="M1600 550 c0 -5 7 -10 16 -10 8 0 12 5 9 10 -3 6 -10 10 -16 10 -5 0
-9 -4 -9 -10z"/>
<path d="M1193 536 c5 -16 27 -19 27 -3 0 7 -7 14 -15 14 -9 0 -14 -5 -12 -11z"/>
<path d="M1695 530 c3 -5 10 -10 16 -10 5 0 9 5 9 10 0 6 -7 10 -16 10 -8 0
-12 -4 -9 -10z"/>
<path d="M1488 523 c7 -3 16 -2 19 1 4 3 -2 6 -13 5 -11 0 -14 -3 -6 -6z"/>
<path d="M1567 499 c7 -7 15 -10 18 -7 3 3 -2 9 -12 12 -14 6 -15 5 -6 -5z"/>
<path d="M1700 498 c0 -18 -41 -48 -65 -48 -9 0 -13 -4 -10 -10 10 -17 42 -11
79 14 35 23 35 24 16 41 -17 15 -20 16 -20 3z"/>
<path d="M1495 480 c4 -6 11 -8 16 -5 14 9 11 15 -7 15 -8 0 -12 -5 -9 -10z"/>
<path d="M2255 461 c-3 -5 -1 -12 5 -16 5 -3 10 1 10 9 0 18 -6 21 -15 7z"/>
<path d="M1648 413 c7 -3 16 -2 19 1 4 3 -2 6 -13 5 -11 0 -14 -3 -6 -6z"/>
<path d="M1920 370 c19 -13 30 -13 30 0 0 6 -10 10 -22 10 -19 0 -20 -2 -8
-10z"/>
<path d="M1775 360 c-3 -5 -15 -10 -26 -10 -10 0 -19 -4 -19 -10 0 -11 15 -12
48 -4 12 4 22 13 22 20 0 16 -16 19 -25 4z"/>
<path d="M1844 342 c2 -15 8 -27 15 -26 26 2 31 4 31 14 0 5 -7 6 -17 3 -9 -4
-14 -2 -11 3 3 5 0 15 -7 21 -11 10 -13 7 -11 -15z"/>
<path d="M1989 349 c-7 -5 -24 -9 -36 -9 -12 0 -24 -3 -26 -7 -6 -10 66 -8 82
1 6 4 16 4 21 1 6 -3 10 -4 10 -1 0 13 -37 24 -51 15z"/>
<path d="M2080 340 c0 -5 5 -10 10 -10 6 0 10 5 10 10 0 6 -4 10 -10 10 -5 0
-10 -4 -10 -10z"/>
<path d="M2288 323 c7 -3 16 -2 19 1 4 3 -2 6 -13 5 -11 0 -14 -3 -6 -6z"/>
</g>
</svg>
